<svg xmlns="http://www.w3.org/2000/svg" width="947.995" height="111.109" viewBox="0 0 947.995 111.109">
  <path id="_絶対法則_とも言うべき手法を使った_稼ぎ_の境地に_無料で到達できます_" data-name="｢絶対法則｣ とも言うべき手法を使った ｢稼ぎ｣ の境地に 無料で到達できます!!" d="M-467.983-12.441v-16.38h7.02v-4.251h-11.661v20.631Zm10.608.078a39.591,39.591,0,0,1,5.694-.546V-.819a29.361,29.361,0,0,1-.234,4.1h4.251a23.825,23.825,0,0,1-.234-4.1V-13.26c1.131-.156,1.248-.156,2.5-.312.156.624.234.9.429,1.833l3.12-1.287a38.737,38.737,0,0,0-2.925-7.956l-2.769,1.131c.624,1.443.819,1.95,1.17,2.886-1.911.195-2.652.273-4.29.312,1.326-1.677,3.9-5.343,5.031-7.137,1.794-2.847,1.794-2.847,2.262-3.471l-3.51-2.067a35.875,35.875,0,0,1-3.744,6.747c-.507-.624-.624-.819-1.365-1.677a41.115,41.115,0,0,0,2.964-4.992,24.761,24.761,0,0,1,1.326-2.457l-3.822-1.482a26.471,26.471,0,0,1-2.847,6.162L-455.7-28.47l-1.989,3.393a50.1,50.1,0,0,1,4.836,5.811c-.585.819-.819,1.17-1.053,1.482-.624.858-.624.858-.975,1.287h-1.209a10.757,10.757,0,0,1-1.716-.078Zm28.509-9.984c.507-.78.7-1.131,1.326-2.262a31.291,31.291,0,0,1,2.106-3.549l-1.911-1.911a22.748,22.748,0,0,1-3.2.156h-3.471c.39-.78.585-1.248.663-1.4.078-.117.156-.312.273-.546l-4.095-1.248a19,19,0,0,1-2.652,5.694,20.838,20.838,0,0,1-4.836,5.382,11.475,11.475,0,0,1,2.262,3.276c.507-.468.585-.546,1.053-.975V-1.4c0,3.315,1.443,3.9,9.555,3.9,8.931,0,9.516-.468,10.218-8.112a14.076,14.076,0,0,1-4.017-1.638c-.039,3.081-.156,4.134-.546,4.8-.468.9-1.677,1.131-5.811,1.131a19.505,19.505,0,0,1-4.719-.351c-.624-.195-.819-.507-.819-1.287V-9.243h11.154a24.121,24.121,0,0,1,3.393.156c-.078-.936-.117-1.6-.117-3.549v-6.63c0-1.521.039-2.262.117-3.237a23.985,23.985,0,0,1-3.471.156Zm-9.945,0a27.918,27.918,0,0,0,2.925-4.017h4.719a17.431,17.431,0,0,1-2.184,4.017Zm1.326,3.627h3.471v5.85h-3.471Zm6.942,0h3.744v5.85h-3.744Zm-25.9,7.6A43.342,43.342,0,0,1-457.8.039l3.51,1.248a68.181,68.181,0,0,0,1.287-11.934Zm9.672.624a55.5,55.5,0,0,1,.9,9.126l3.276-.819a62.164,62.164,0,0,0-1.17-9.009Zm35.373-16.263h-3.549a28.1,28.1,0,0,1-3.861-.234v4.251a25.092,25.092,0,0,1,3.627-.195h7.215a37.818,37.818,0,0,1-1.521,8.268c-1.482-1.716-2.145-2.457-2.457-2.769-2.3-2.379-2.3-2.379-3.081-3.159l-2.847,2.886a70.954,70.954,0,0,1,6.63,7.176,27.068,27.068,0,0,1-8,9.555,13.958,13.958,0,0,1,2.964,3.627,38.329,38.329,0,0,0,7.761-9.633,56.013,56.013,0,0,1,4.485,6.747l3.081-3.432c-2.769-3.9-3.081-4.329-5.538-7.449a39.95,39.95,0,0,0,2.652-11.817,29.1,29.1,0,0,1,3.042.117v-4.173a20.828,20.828,0,0,1-3.744.234H-407.3v-2.184a30.949,30.949,0,0,1,.2-3.666h-4.524a18.47,18.47,0,0,1,.234,3.666Zm20.124,5.928v18.6c0,.819-.234.936-2.34.936a39.181,39.181,0,0,1-4.719-.468,12.923,12.923,0,0,1,1.209,4.329c1.56.117,3,.156,4.6.156,2.574,0,3.978-.39,4.719-1.326.585-.7.7-1.365.7-3.393V-20.826h.507a22.666,22.666,0,0,1,2.73.117c.585.078.585.078.9.117V-24.96a22.364,22.364,0,0,1-3.666.234h-.468v-3.081a35.118,35.118,0,0,1,.234-4.641h-4.68a26.163,26.163,0,0,1,.273,4.641v3.081h-4.953a23.685,23.685,0,0,1-3.7-.195v4.29a24.3,24.3,0,0,1,3.7-.195ZM-401.917-16.5a34.768,34.768,0,0,1,5.46,9.438l3.549-2.34a48.975,48.975,0,0,0-5.5-9.009ZM-369.9,1.989c1.248-.234,2.067-.351,6.318-.78A128.789,128.789,0,0,0-349.462-.819c.624,1.209.9,1.794,1.794,3.588l3.822-2.3a84.465,84.465,0,0,0-7.878-12.012l-3.471,1.794a49.707,49.707,0,0,1,3.822,5.538,93.6,93.6,0,0,1-10.374,1.287l.351-.741a78,78,0,0,0,3.432-7.566c.546-1.443.546-1.443.78-2.145h9.165a30.756,30.756,0,0,1,4.056.234v-4.368a30.968,30.968,0,0,1-4.1.234h-7.488v-5.85h6.279a26.776,26.776,0,0,1,3.939.195v-4.29a28.319,28.319,0,0,1-3.978.234h-6.24V-28.7a22.515,22.515,0,0,1,.234-4.095h-4.719A21.027,21.027,0,0,1-359.8-28.7v1.716h-4.641a28.081,28.081,0,0,1-4.134-.234v4.29c1.248-.117,2.574-.195,4.1-.195h4.68v5.85h-6.084a30.663,30.663,0,0,1-4.251-.234v4.368a33.761,33.761,0,0,1,4.212-.234h4.212a59.069,59.069,0,0,1-4.836,10.764c-1.326.078-2.262.117-2.886.117-.39,0-.7,0-1.326-.039Zm-8.463-31.551a39.78,39.78,0,0,1,6.708,5.382L-369-27.573a41.012,41.012,0,0,0-6.708-4.992Zm-1.677,9.633a40.179,40.179,0,0,1,6.942,5.187l2.457-3.549a48.322,48.322,0,0,0-6.981-4.758Zm5.889,7.761c-1.989,5.382-4.368,10.218-5.733,11.7l3.744,3.276a7.856,7.856,0,0,0,.468-.975c.507-1.209.507-1.209,1.209-2.652,1.56-3.237,2.418-5.3,3.783-8.892Zm47.736,6.123a28.1,28.1,0,0,1,2.925.117c-.078-.546-.117-2.184-.117-3.627v-18.33c0-1.209.039-2.574.117-3.393a26.063,26.063,0,0,1-3.354.156h-8.5a31.728,31.728,0,0,1-3.432-.156,32.239,32.239,0,0,1,.156,3.627v17.94c0,1.638-.039,2.535-.117,3.783a25.944,25.944,0,0,1,2.847-.117Zm-8.151-21.333h7.02v3.51h-7.02Zm0,6.864h7.02v3.471h-7.02Zm0,6.864h7.02v3.9h-7.02Zm-.858,7.878A15.177,15.177,0,0,1-341.233.507,13.867,13.867,0,0,1-338,3.393,22.355,22.355,0,0,0-331.678-3.9ZM-330-3.9a29.325,29.325,0,0,0,5.577,6.708,23.852,23.852,0,0,1,3.276-2.847,21.33,21.33,0,0,1-5.382-5.655Zm9.906-26.091a37.3,37.3,0,0,1,.234,4.719v14.7a41.72,41.72,0,0,1-.2,4.563h4.485a35.327,35.327,0,0,1-.2-4.641V-25.272a38.168,38.168,0,0,1,.234-4.719Zm12.987,3.159a40.784,40.784,0,0,1,.273-5.3h-4.719a38.927,38.927,0,0,1,.273,5.3V-2.457c0,.936-.39,1.17-1.911,1.17a48.824,48.824,0,0,1-4.992-.312,15.863,15.863,0,0,1,1.326,4.251c1.482.039,3.081.078,3.978.078,4.563,0,5.772-.936,5.772-4.446Zm12.129,9.633V-.819H-302V3.432h11.661V-17.2ZM-260-30.438a16.15,16.15,0,0,1,.608,2.47,96.824,96.824,0,0,0,2.546,10.3,23.455,23.455,0,0,0-5.168,3.268A8.924,8.924,0,0,0-265.4-7.6a7.192,7.192,0,0,0,3.306,6.346c2.432,1.444,5.738,2.09,11.02,2.09a80.305,80.305,0,0,0,8.892-.57A23.688,23.688,0,0,1-239.1,0l-.418-5.206a41.6,41.6,0,0,1-12.274,1.558c-6.118,0-8.7-1.178-8.7-3.952,0-2.736,2.774-5.168,8.322-7.22a92.848,92.848,0,0,1,12.54-3.648l-1.634-4.788a10.4,10.4,0,0,1-1.444.57c-7.372,2.432-7.372,2.432-9.842,3.344a63.82,63.82,0,0,1-2.508-11.894Zm30.628,18.24a6.436,6.436,0,0,1,1.444.228c1.52.342,3,.57,5.282.874a25.954,25.954,0,0,0-.19,3.23c0,6.118,3.762,9.424,10.678,9.424A13.653,13.653,0,0,0-203.573-.95a9.041,9.041,0,0,0,3.648-7.106,11.819,11.819,0,0,0-1.634-5.586,14.6,14.6,0,0,0-1.786-2.394,14.041,14.041,0,0,1-4.712.95c2.28,2.09,3.42,4.218,3.42,6.422,0,3.724-2.774,5.852-7.6,5.852a6.914,6.914,0,0,1-4.712-1.406,4.751,4.751,0,0,1-1.406-3.914,26.949,26.949,0,0,1,.19-2.7c1.482.076,1.824.076,2.432.076a55.343,55.343,0,0,0,5.7-.342,4.884,4.884,0,0,1,1.14-.114l.114-4.37a30.38,30.38,0,0,1-7.258.76c-.418,0-.722,0-1.862-.038.228-1.824.342-2.584.722-5.358,1.634.038,1.976.038,2.356.038,1.368,0,2.584-.076,5.32-.3.836-.076,1.026-.114,1.52-.152l.152-4.446a37.75,37.75,0,0,1-8.664.8c.684-4.674.8-5.244,1.216-6.422l-5.054-.456a1.574,1.574,0,0,1,.038.38,44.727,44.727,0,0,1-.76,6.308,28.834,28.834,0,0,1-6.878-1.368l-.38,4.18c.57.114.76.152,1.292.266a49.84,49.84,0,0,0,5.434.95c-.19,1.406-.532,3.952-.684,5.32-3.876-.532-4.94-.76-6.688-1.444Zm65.816-18.81a32.069,32.069,0,0,1-4.18.228h-17.214a32.9,32.9,0,0,1-4.18-.228v3.8a33.267,33.267,0,0,1,4.18-.19h17.214a33.637,33.637,0,0,1,4.18.19Zm4.294,5.4a29.877,29.877,0,0,1-4.142.228h-25.916a30.487,30.487,0,0,1-4.18-.228v4.028a33.18,33.18,0,0,1,4.218-.19h25.84c1.634,0,2.888.076,4.18.19ZM-163.9-19.95a32.194,32.194,0,0,1-3.838.152h-17.176a33.342,33.342,0,0,1-3.876-.152v3.686a26.346,26.346,0,0,1,3.876-.19h17.176a26.407,26.407,0,0,1,3.838.19Zm0,5.282a24.857,24.857,0,0,1-3.838.19h-17.176a25.415,25.415,0,0,1-3.876-.19v3.724a26.033,26.033,0,0,1,3.876-.19h17.176a26.09,26.09,0,0,1,3.838.19Zm-21.28,16.15h17.48V3.116h4.332a22.9,22.9,0,0,1-.19-3.534V-5.776a23.5,23.5,0,0,1,.152-3.306,19.421,19.421,0,0,1-3,.152h-20.026a21.747,21.747,0,0,1-3-.152,21.541,21.541,0,0,1,.19,3.306v5.32c0,1.1-.076,2.356-.19,3.534h4.256Zm0-6.878h17.518v3.23h-17.518Zm37.392-21.166a84.2,84.2,0,0,0,17.746,2.394l.646-4.674h-1.064a52.093,52.093,0,0,1-15.846-2.2Zm-3.344,12.692c3.154-1.292,10.754-2.622,15.048-2.622,3.952,0,5.966,1.444,5.966,4.294,0,2.622-1.634,5.016-4.636,6.688a26.523,26.523,0,0,1-11.438,2.888,10.855,10.855,0,0,1,1.976,4.75c6.194-.988,8.854-1.786,11.97-3.572,4.6-2.622,7.22-6.574,7.22-10.906a7.824,7.824,0,0,0-3.686-6.954,13.71,13.71,0,0,0-7.182-1.558,66.3,66.3,0,0,0-11.932,1.292,25.866,25.866,0,0,1-4.408.646Zm36.366,6.688a5.959,5.959,0,0,1,.8-1.064,111.182,111.182,0,0,0,7.486-9.2c1.292-1.71,1.672-2.052,2.28-2.052.722,0,.95.19,3.306,2.888A157.278,157.278,0,0,0-86.115-1.52a7.427,7.427,0,0,1,1.1,1.1l2.318-5.4c-2.2-.95-10.792-9.158-15.5-14.82a25.369,25.369,0,0,0-2.546-2.736,5.386,5.386,0,0,0-3.42-1.444,5.229,5.229,0,0,0-3.04,1.14,11.641,11.641,0,0,0-2.356,2.394c-4.37,5.624-6.688,8.208-8.284,9.31Zm19.684-17.9a26.972,26.972,0,0,1,3.99,5.662l2.66-1.406a25.86,25.86,0,0,0-3.99-5.586Zm11.172,1.786a21.976,21.976,0,0,0-3.952-5.358l-2.546,1.33a28,28,0,0,1,3.876,5.51Zm7.866,1.406c.8-.038.988-.076,2.584-.076A91.613,91.613,0,0,0-63.277-22.5c.3.684.418.912.8,1.71.3.722.456.95.684,1.406a74.76,74.76,0,0,1-10.754.722,22.521,22.521,0,0,1-3.914-.152l.152,4.142c.646-.076.912-.076,1.558-.114,8.246-.266,10.678-.418,14.706-1.026a22.878,22.878,0,0,0,2.926,4.256,26.187,26.187,0,0,0-6.574-.8c-3.838,0-6.878.646-8.854,1.9a6.346,6.346,0,0,0-3.192,5.282A6.12,6.12,0,0,0-72.815.038c2.128,1.292,4.9,1.862,9.272,1.862A36.586,36.586,0,0,0-53.815.608a18.793,18.793,0,0,1,2.47-.57l-.684-4.674c-2.394,1.33-7.752,2.47-11.7,2.47A14.812,14.812,0,0,1-69.167-3a2.505,2.505,0,0,1-1.634-2.2,2.742,2.742,0,0,1,1.634-2.318,14.658,14.658,0,0,1,6.384-1.064,20.435,20.435,0,0,1,8.74,1.558L-50.7-9.424a38,38,0,0,1-5.092-6.954c.456-.114.456-.114,1.406-.3.912-.19,2.166-.456,3.724-.836.874-.228,1.672-.38,2.394-.494l-.38-4.142a19.192,19.192,0,0,1-3.61,1.1c-.228.038-1.976.418-5.244,1.1a34.218,34.218,0,0,1-1.482-3.116c1.178-.152,5.4-.988,7.942-1.6.912-.19.912-.19,1.292-.266l-.38-4.028a63.841,63.841,0,0,1-10.26,2.28,22.276,22.276,0,0,1-1.558-4.6l-4.75.646c.038.076.57,1.254,1.52,3.458.3.684.3.684.418.988a67.535,67.535,0,0,1-7.828.418,31.879,31.879,0,0,1-3.648-.152Zm49.97.684h-8.512a37.125,37.125,0,0,1-4.712-.228v4.256a44.21,44.21,0,0,1,4.75-.228h8.474v4.6h-10.6a36.452,36.452,0,0,1-4.674-.228V-8.74a38.128,38.128,0,0,1,4.674-.228h10.6V-2.7c0,.912-.342,1.178-1.444,1.178a47.317,47.317,0,0,1-6.346-.532,11.638,11.638,0,0,1,1.14,4.142c2.166.19,4.028.266,5.168.266A12.178,12.178,0,0,0-23.3,1.748c.95-.418,1.482-1.6,1.482-3.268V-8.968h9.728a37.872,37.872,0,0,1,4.636.228v-4.294a36.193,36.193,0,0,1-4.636.228h-9.728v-4.6h7.942a39.443,39.443,0,0,1,4.674.228v-4.256a37.8,37.8,0,0,1-4.75.228h-7.866v-4.94A101.329,101.329,0,0,0-10.3-28.272l-3.116-3.8a26.629,26.629,0,0,1-7.03,1.824,117.925,117.925,0,0,1-17.024,1.292h-1.862a21.048,21.048,0,0,1,1.406,3.914c4.978-.114,6.878-.228,11.856-.684ZM5.959,1.938c1.216-.228,2.014-.342,6.156-.76A125.486,125.486,0,0,0,25.871-.8C26.479.38,26.745.95,27.619,2.7L31.343.456a82.3,82.3,0,0,0-7.676-11.7L20.285-9.5a48.429,48.429,0,0,1,3.724,5.4A91.2,91.2,0,0,1,13.9-2.85l.342-.722a76,76,0,0,0,3.344-7.372c.532-1.406.532-1.406.76-2.09h8.93a29.968,29.968,0,0,1,3.952.228v-4.256a30.174,30.174,0,0,1-3.99.228h-7.3v-5.7h6.118a26.09,26.09,0,0,1,3.838.19v-4.18a27.593,27.593,0,0,1-3.876.228h-6.08v-1.672a21.938,21.938,0,0,1,.228-3.99h-4.6a20.486,20.486,0,0,1,.228,3.99V-26.3H11.279a27.361,27.361,0,0,1-4.028-.228v4.18c1.216-.114,2.508-.19,3.99-.19H15.8v5.7H9.873a29.877,29.877,0,0,1-4.142-.228v4.256a32.9,32.9,0,0,1,4.1-.228h4.1A57.553,57.553,0,0,1,9.227-2.546c-1.292.076-2.2.114-2.812.114-.38,0-.684,0-1.292-.038ZM-2.287-28.8A38.76,38.76,0,0,1,4.249-23.56l2.584-3.306A39.961,39.961,0,0,0,.3-31.73Zm-1.634,9.386a39.149,39.149,0,0,1,6.764,5.054l2.394-3.458a47.083,47.083,0,0,0-6.8-4.636Zm5.738,7.562C-.121-6.612-2.439-1.9-3.769-.456L-.121,2.736a7.655,7.655,0,0,0,.456-.95C.829.608.829.608,1.513-.8,3.033-3.952,3.869-5.966,5.2-9.462ZM36.853-22.99a4.2,4.2,0,0,1,.608-.038c.342,0,.342,0,1.064.038.836,0,4.18.076,4.788.076,0,0,.494-.038.646-.038a1.859,1.859,0,0,0-.3.494,50.331,50.331,0,0,1-4.56,6.5,23.279,23.279,0,0,1-3.42,3.382l3.458,3.42a17.086,17.086,0,0,1,3.306-3.458c2.926-2.584,5.586-3.914,7.79-3.914a2.086,2.086,0,0,1,2.318,2.052c-4.294,1.786-6.46,3.23-8.17,5.358A6.056,6.056,0,0,0,42.705-4.9,5.51,5.51,0,0,0,45.479,0c1.938,1.14,4.446,1.6,8.474,1.6A68.923,68.923,0,0,0,63.681.912,11.2,11.2,0,0,1,65.429.76l-.38-4.9a33.016,33.016,0,0,1-11.172,1.6c-4.6,0-6.422-.8-6.422-2.774a4,4,0,0,1,1.976-3.116,23.094,23.094,0,0,1,3.648-1.976V-9.5a30.083,30.083,0,0,1-.228,4.408l4.408-.114a15.6,15.6,0,0,1-.114-2.014c0-.266,0-.608.038-1.254v-1.52c0-.532,0-.532-.038-1.52v-.418q4.9-1.71,5.7-1.938A33.543,33.543,0,0,1,67.063-14.9l-1.786-4.37a11.872,11.872,0,0,1-2.812,1.14q-1.425.456-5.814,2.052c-.608-2.622-2.47-4.028-5.434-4.028a9.186,9.186,0,0,0-5.358,1.71c-.494.38-.494.38-.76.57l-.038-.076a19.664,19.664,0,0,0,3.5-5.054c3.838-.114,8.664-.418,11.438-.76,1.938-.228,1.938-.228,3-.3l-.266-4.332a51.335,51.335,0,0,1-9.956,1.292c-2.09.114-2.09.114-2.394.152.076-.152.152-.266.342-.684a29.034,29.034,0,0,1,1.52-3.42l-4.978-.532a15.049,15.049,0,0,1-1.52,4.712,45.92,45.92,0,0,1-8.816-.494Zm64.828,12.5a32.185,32.185,0,0,1,3.686.152c-.076-.912-.114-1.634-.114-3.458v-4.9c0-1.406.038-2.356.114-3.306-1.064.076-1.862.114-3.572.114H96.209v-2.736h7.106a28.134,28.134,0,0,1,3.8.19v-4.1a34.847,34.847,0,0,1-4.294.228H96.209a26.56,26.56,0,0,1,.114-3.838h-4.37a29.887,29.887,0,0,1,.228,3.838H86.367a32.465,32.465,0,0,1-4.1-.228v4.1a25.809,25.809,0,0,1,3.648-.19h6.27l.038,2.736h-5.89c-1.824,0-2.394-.038-3.534-.114a22.348,22.348,0,0,1,.152,3.192v5.282a26.828,26.828,0,0,1-.152,3.192,24.855,24.855,0,0,1,3.078-.152h5.586a11.913,11.913,0,0,1-1.33,3.572,10.764,10.764,0,0,1-2.508-3.04L84.315-8.208c.38.418.684.76,1.178,1.406A17.5,17.5,0,0,0,87.849-4.18,19.208,19.208,0,0,1,80.135-.532,17.641,17.641,0,0,1,82.491,3.04a21.475,21.475,0,0,0,8.474-4.864c4.18,2.66,8.55,4.028,14.972,4.712a20.563,20.563,0,0,1,1.634-4.218c-6.346-.266-10.222-1.14-14.25-3.344a15.38,15.38,0,0,0,2.128-5.814Zm-9.5-7.752c-.076,2.128-.076,2.432-.228,4.142H86.9V-18.24Zm9.082,0V-14.1h-5.4c.152-1.444.19-2.166.266-4.142ZM75.689-1.254a37.992,37.992,0,0,1-.228,4.446h4.446a41.407,41.407,0,0,1-.19-4.408V-22.838a60.683,60.683,0,0,0,3.116-8.436L78.5-32.3A30.813,30.813,0,0,1,71.4-17.176a23.773,23.773,0,0,1,1.748,4.522,30.283,30.283,0,0,0,2.66-3.99c-.114,2.432-.114,3.04-.114,4.218ZM115.1-12.73a24,24,0,0,1,4.408-1.292A42.583,42.583,0,0,1,129.5-15.5c4.028,0,6.232,1.6,6.232,4.56a6.1,6.1,0,0,1-2.7,5.13,13.4,13.4,0,0,1-6.346,2.584,33.487,33.487,0,0,1-5.4.57h-.57a12.014,12.014,0,0,1,1.634,4.332c4.94-.57,5.89-.722,8.246-1.444,6.042-1.9,9.614-6,9.614-11.058a8.619,8.619,0,0,0-1.406-4.9c-1.71-2.622-4.636-3.876-8.968-3.876a53.689,53.689,0,0,0-11.742,1.6,20.258,20.258,0,0,1-3.952.722Zm35.112-8.094a5.674,5.674,0,0,1,.722-.038c.3,0,.836,0,1.52.038.646.038,1.026.038,1.216.038h2.2a3.217,3.217,0,0,0,.494-.038c-1.254,6.764-4.18,15.618-6.8,20.444l4.788,1.862A128.832,128.832,0,0,0,158.605-11.1c.988-3.458,1.938-7.486,2.356-9.842a51.8,51.8,0,0,0,6.232-.8c.912-.152.912-.152,1.216-.19l-.19-4.37a31.539,31.539,0,0,1-6.5,1.14c.152-.874.19-1.1.38-2.166a21.6,21.6,0,0,1,.722-3.648l-5.016-.456a5.157,5.157,0,0,1,.038.684,46.121,46.121,0,0,1-.722,5.814c-.874.038-1.292.038-1.748.038a30.234,30.234,0,0,1-5.092-.342Zm30.134.836c-2.394-.038-2.736-.038-3.762-.038a48.766,48.766,0,0,0-11.324,1.216l.342,4.18a41.01,41.01,0,0,1,10.032-1.1,39.56,39.56,0,0,1,4.788.266Zm-14.972,7.98c-2.09,2.85-2.812,4.56-2.812,6.574a5.491,5.491,0,0,0,2.7,4.674C167.079.266,169.511.76,172.893.76a44.221,44.221,0,0,0,7.068-.608c.874-.152,1.178-.19,1.862-.266l-.342-4.674a29.082,29.082,0,0,1-8.626,1.406c-3.8,0-5.7-.988-5.7-2.926,0-1.33.456-2.28,1.976-4.18Zm42.956-.433v-16.38h7.02v-4.251H203.684v20.631Zm34.788-7.683a48.244,48.244,0,0,0,3.588,11.5A36.626,36.626,0,0,0,252.473.975c.234-.39.429-.7.546-.9.39-.663.663-1.131.78-1.287A12.045,12.045,0,0,1,255.2-3a23.29,23.29,0,0,1-5.577-8.073,45.054,45.054,0,0,0,4.953-4.875L251.3-18.642a15.765,15.765,0,0,1-3.12,3.9,29.735,29.735,0,0,1-1.4-5.382h1.95a25.317,25.317,0,0,1,2.769.117v-1.482h2.34a16.275,16.275,0,0,1-.156-2.457v-2.769a24.643,24.643,0,0,1,.117-2.613,23.479,23.479,0,0,1-3.432.117h-6.162v-.819a12.2,12.2,0,0,1,.195-2.691h-4.524a13.274,13.274,0,0,1,.234,2.691v.819h-5.616a32.5,32.5,0,0,1-3.354-.117,20.744,20.744,0,0,1,.117,2.535V-24.1a21.645,21.645,0,0,1-.117,2.535h2.5v1.56a24.713,24.713,0,0,1,2.691-.117h1.716a22.61,22.61,0,0,1-7.605,4.017,8.106,8.106,0,0,1,2.106,3.081,39.505,39.505,0,0,0,5.109-2.964,14.356,14.356,0,0,1,1.17,1.521,31.4,31.4,0,0,1-8.892,4.992,10.831,10.831,0,0,1,2.3,3.237,41.128,41.128,0,0,0,8.034-5.343,13.447,13.447,0,0,1,.624,1.989,29.43,29.43,0,0,1-3.51,3,31.1,31.1,0,0,1-8.736,4.836,10.827,10.827,0,0,1,2.3,3.432,32.263,32.263,0,0,0,4.758-2.73,10.434,10.434,0,0,1,.975,3.939,29.408,29.408,0,0,0,3.159.195c1.95,0,3.081-.273,3.861-.9,1.209-.975,1.794-2.808,1.794-5.733a23.89,23.89,0,0,0-2.847-11.466,20.331,20.331,0,0,0-2.184-3.159c.9-.78,1.053-.936,2.106-1.95Zm6.63-3.237H236.717c-.741,0-.936,0-1.6-.039v-2.379h14.625ZM241.514-5.733c.039.507.039.78.039,1.326a6.679,6.679,0,0,1-.468,3.2,2.314,2.314,0,0,1-1.677.468,18.827,18.827,0,0,1-3.549-.429A29.186,29.186,0,0,0,241.514-5.733ZM223.535-22.581h-1.872a16.256,16.256,0,0,1-3.042-.195v4.134a17.544,17.544,0,0,1,2.925-.195h1.638a41.462,41.462,0,0,1-1.677,4.407,25.47,25.47,0,0,1-3.822,6.006,12.5,12.5,0,0,1,1.989,4.29,28.545,28.545,0,0,0,4.1-8.112q-.059.76-.117,1.17c-.039.507-.078.858-.078,1.014,0,.195,0,.273-.039,2.262v6.552a35.856,35.856,0,0,1-.234,4.563h4.407a33.242,33.242,0,0,1-.195-4.6V-9.4c0-1.833-.078-3.12-.2-4.758A26.9,26.9,0,0,0,229.7-9.633a15.5,15.5,0,0,1,2.028-3.666,19.8,19.8,0,0,1-3.978-5.538,15.76,15.76,0,0,1,2.652.156v-4.056a13.973,13.973,0,0,1-2.535.156h-.351V-28a27.45,27.45,0,0,0,3.2-1.209l.819-.351-2.184-3.432c-1.794,1.365-5.85,2.574-11,3.2a11.86,11.86,0,0,1,1.443,3.666c1.833-.351,2.457-.468,3.744-.741Zm60.84-6.006a44.536,44.536,0,0,1-7.449,1.638,22.167,22.167,0,0,1-1.6-4.719l-4.875.663a7.309,7.309,0,0,1,.624,1.248c.468,1.17.741,1.755,1.248,3l.117.312a68.4,68.4,0,0,1-8.034.429,32.718,32.718,0,0,1-3.744-.156l.2,4.134a22.153,22.153,0,0,1,2.652-.078,82.082,82.082,0,0,0,10.452-.585c.351.741.429.975.819,1.794.351.78.468,1.014.7,1.443a71.848,71.848,0,0,1-11.037.741,23.114,23.114,0,0,1-4.017-.156l.156,4.251c.663-.078.9-.078,1.6-.117A115.981,115.981,0,0,0,277.277-15.8a23.943,23.943,0,0,0,3,4.368,26.876,26.876,0,0,0-6.747-.819c-3.939,0-7.059.663-9.087,1.95a6.513,6.513,0,0,0-3.276,5.421,6.281,6.281,0,0,0,3,5.343c2.184,1.326,5.031,1.911,9.516,1.911a37.549,37.549,0,0,0,9.984-1.326l.663-.195c.39-.078.663-.156.819-.195.39-.078.585-.117,1.053-.2l-.7-4.836c-2.457,1.4-7.956,2.574-12.012,2.574a15.2,15.2,0,0,1-5.577-.858,2.571,2.571,0,0,1-1.677-2.262,2.814,2.814,0,0,1,1.677-2.379,15.044,15.044,0,0,1,6.552-1.092,20.973,20.973,0,0,1,8.97,1.6l3.432-2.457a41.45,41.45,0,0,1-5.226-7.137l.39-.117L284.492-17l2.691-.624c1.014-.234,1.6-.351,2.184-.429l-.39-4.251c-1.248.585-3.159,1.053-9.087,2.262a35.118,35.118,0,0,1-1.521-3.2,43.633,43.633,0,0,0,4.8-.9c.468-.117.819-.195.936-.234a8.552,8.552,0,0,0,.858-.156ZM283.2-31.2a25.465,25.465,0,0,1,3.744,6.045l2.847-1.209a25.134,25.134,0,0,0-3.744-5.967Zm11.505,2.808a22.451,22.451,0,0,0-3.7-5.733l-2.73,1.131A28.136,28.136,0,0,1,291.9-27.1ZM303.329-17.2V-.819h-7.02V3.432H307.97V-17.2Zm45.616-7.159a8.305,8.305,0,0,1,3.838,1.14,9.414,9.414,0,0,1,4.674,8.436,10.639,10.639,0,0,1-5.282,9.5c-1.786,1.026-4.066,1.634-7.562,2.09a12.123,12.123,0,0,1,2.318,4.446,24.843,24.843,0,0,0,5.966-1.6c5.814-2.356,9.234-7.6,9.234-14.174,0-8.55-5.928-14.1-15.048-14.1-5.4,0-9.88,1.824-13.072,5.32a16.323,16.323,0,0,0-4.18,11.058c0,6.118,3.116,10.526,7.448,10.526,3.116,0,5.548-2.242,7.714-7.144A54.973,54.973,0,0,0,348.945-24.358Zm-4.636.038a50.081,50.081,0,0,1-3.154,12.844c-1.368,3.268-2.66,4.864-3.914,4.864-1.672,0-3-2.47-3-5.586a12.723,12.723,0,0,1,5.168-10.26A9.673,9.673,0,0,1,344.309-24.32ZM382.8-5.928c-.494,3.61-2.888,5.092-9.272,5.89a12,12,0,0,1,2.166,3.61c4.484-1.026,6.688-2.052,8.474-3.914A9.158,9.158,0,0,0,386.6-5.928h2.66V-.152c0,1.444.266,2.014,1.254,2.432a11.374,11.374,0,0,0,4.56.57c5.624,0,6.384-.684,6.764-6.46a14.2,14.2,0,0,1-3.762-1.33c0,2.242-.076,3.306-.3,3.724-.228.38-.76.494-2.356.494-2.09,0-2.28-.076-2.28-.874V-5.928H396.1c1.558,0,2.242.038,3.192.114a22.1,22.1,0,0,1-.152-3v-6.612a21.749,21.749,0,0,1,.152-3c-.988.076-1.824.114-3.572.114H382.461c-1.786,0-2.622-.038-3.61-.114a20.717,20.717,0,0,1,.152,3v6.84a23.882,23.882,0,0,1-.114,2.774c1.52-.076,2.09-.114,3.268-.114Zm.076-9.31h12.274v1.52H382.879Zm0,4.408h12.274v1.672H382.879Zm-12.54-11.362h-.8a19.193,19.193,0,0,1-3.04-.19v4.066a24.438,24.438,0,0,1,3-.19h.836V-7.6a22.4,22.4,0,0,1-4.294,1.292l.836,4.408c.532-.266,1.1-.494,1.748-.76,4.18-1.71,6.574-2.7,9.158-3.952l-.152-4.066c-1.862.874-2.394,1.1-3.344,1.52v-9.348a16.766,16.766,0,0,1,2.622.152v-3.952a23.6,23.6,0,0,1-2.622.114v-5.054a25.329,25.329,0,0,1,.228-4.256h-4.408a30.718,30.718,0,0,1,.228,4.218Zm20.672-6.688v-.874A10.28,10.28,0,0,1,391.2-32h-4.446a13.462,13.462,0,0,1,.19,2.28v.836h-4.56a31.357,31.357,0,0,1-4.066-.19v3.534a23.851,23.851,0,0,1,3.306-.152,18.694,18.694,0,0,1,1.026,2.622h-1.558a29.42,29.42,0,0,1-3.382-.152v3.686a28.657,28.657,0,0,1,3.5-.114h16.112a29.77,29.77,0,0,1,3.99.19v-3.8a24.557,24.557,0,0,1-3.838.19h-2.2a25.287,25.287,0,0,0,1.216-2.622,35.5,35.5,0,0,1,3.876.152V-29.07a39.721,39.721,0,0,1-4.1.19Zm-4.37,5.814q-.456-1.311-1.026-2.622h6.764a22.79,22.79,0,0,1-1.14,2.622Zm35.72,6.954,3.686-1.178v8.056a28.9,28.9,0,0,1-.19,3.914h4.408a27.57,27.57,0,0,1-.228-3.8v-9.462l4.37-1.368c-.114,3.686-.266,6.042-.456,7.3-.152.8-.38.95-1.33.95a10.5,10.5,0,0,1-2.128-.3,11.339,11.339,0,0,1,1.026,3.914c.95.076,1.292.076,1.786.076,2.774,0,3.8-.646,4.294-2.812a70.157,70.157,0,0,0,.836-10.45c.076-2.052.114-2.318.19-3.99a23.232,23.232,0,0,1-3.116,1.14l-5.472,1.71v-5.32a31.282,31.282,0,0,1,.228-3.876h-4.408a27.129,27.129,0,0,1,.19,3.8V-21.2l-3.686,1.178v-4.142a29.157,29.157,0,0,1,.228-3.876H418.1a24.228,24.228,0,0,1,.228,4.028v5.206l-.342.114a22.755,22.755,0,0,1-3.686.836l.95,4.142a20.526,20.526,0,0,1,2.318-.874c.152-.038.418-.114.76-.228V-1.748c0,3.344,1.672,4.066,9.348,4.066,10.83,0,11.628-.532,12.084-8.132a20.005,20.005,0,0,1-4.142-1.254c0,2.584-.228,3.876-.684,4.522-.57.8-1.786.988-6.308.988a29.669,29.669,0,0,1-5.168-.266c-.836-.152-1.1-.418-1.1-1.178Zm-13.642-6.194h-.874a14.881,14.881,0,0,1-2.964-.19v4.066a15.6,15.6,0,0,1,2.964-.19h.874V-6.688A19.807,19.807,0,0,1,404.2-5.32l.8,4.37c.57-.266.912-.418,1.976-.836A63.961,63.961,0,0,0,416.357-6l-.114-4.028c-1.71.874-2.128,1.064-3.61,1.748V-18.62h.722a17.3,17.3,0,0,1,2.66.152v-3.99a12.747,12.747,0,0,1-2.546.152h-.836V-27.17a26.822,26.822,0,0,1,.228-4.408h-4.37a32.447,32.447,0,0,1,.228,4.37ZM451.013.912c-.038-.494-.038-.8-.038-1.026,0-2.7,1.292-7.106,3.382-11.514L451.317-13a38.757,38.757,0,0,0-1.976,5.016c.038-.95.076-1.254.076-2.09a63.445,63.445,0,0,1,.57-8.4,52.391,52.391,0,0,1,2.394-11.362l-5.016-.532a24.864,24.864,0,0,1-.57,3.534,72.953,72.953,0,0,0-1.558,14.858,66.283,66.283,0,0,0,.988,11.362c.114.874.152,1.1.19,1.786Zm5.244-22.762a45.11,45.11,0,0,0,6.84.418,68.067,68.067,0,0,0,8.132-.456c1.824-.228,2.394-.3,2.7-.342l-.228-4.6A41.9,41.9,0,0,1,463.363-25.8a27.4,27.4,0,0,1-7.03-.608Zm2.622,6.27c-2.356,2.812-3.5,5.358-3.5,7.828a6.366,6.366,0,0,0,1.14,3.724c1.672,2.242,4.712,3.306,9.424,3.306a46.861,46.861,0,0,0,7.866-.722,12.7,12.7,0,0,1,1.558-.228l-.38-4.826a26.7,26.7,0,0,1-9.044,1.444c-3.952,0-6.042-1.14-6.042-3.306,0-1.634.8-3.268,2.7-5.472ZM-198.864,42.1h-2.52a35.526,35.526,0,0,1-5.488-.28V49.04a36.421,36.421,0,0,1,5.488-.28h2.184v6.5h-1.176a35.085,35.085,0,0,1-5.488-.28v7.112a29.279,29.279,0,0,1,4.816-.28h37.632l-5.6,2.688A60.245,60.245,0,0,1-162.24,76.48l6.384-3.976a68.574,68.574,0,0,0-7.168-10.7h.9a32.877,32.877,0,0,1,5.208.28V54.976a31.48,31.48,0,0,1-5.32.28h-.784v-6.5h1.848a35.971,35.971,0,0,1,5.488.28V41.816a35.526,35.526,0,0,1-5.488.28h-1.848V35.712a43.717,43.717,0,0,1,5.264.336V28.824a56.29,56.29,0,0,1-7.168.336H-191.64c.784-1.176,1.232-1.9,1.848-2.856a11.863,11.863,0,0,1,.952-1.512l-7.672-1.232a18.1,18.1,0,0,1-1.232,2.632c-2.184,3.64-5.04,6.5-10.136,10.024a29.953,29.953,0,0,1,4.592,4.984,36.487,36.487,0,0,0,4.424-3.64Zm6.216-6.384h3.64V42.1h-3.64Zm9.744,0h3.528V42.1H-182.9Zm-9.744,13.048h3.64v6.5h-3.64Zm9.744,0h3.528v6.5H-182.9Zm9.632,6.5v-6.5h3.7v6.5Zm0-13.16V35.712h3.7V42.1Zm2.8,32.872a78.963,78.963,0,0,0-3.3-11.928l-6.552,1.456a70.367,70.367,0,0,1,2.52,12.04Zm-13.16,1.176a94.715,94.715,0,0,0-1.4-12.656l-6.552.728a91.546,91.546,0,0,1,.672,10.192c0,.5,0,1.288-.056,2.3Zm-17.752.728c3.472-4.032,4.872-6.384,7.224-11.984l-6.16-3.024a26.332,26.332,0,0,1-6.888,10.472Zm73.36-9.128A46.364,46.364,0,0,1-122.7,66.4l10.976-2.408V70.04a42.9,42.9,0,0,1-.336,6.888h7.952a43.373,43.373,0,0,1-.336-6.832V62.424c2.744-.56,4.032-.784,5.544-.952l-.9-7.5a42.807,42.807,0,0,1-4.648,1.288V31.568a42.579,42.579,0,0,1,.336-6.776h-7.952a41.333,41.333,0,0,1,.336,6.776V56.824l-11.984,2.52a32.975,32.975,0,0,1-5.32.784c.56-1.12.784-1.512,1.68-3.08a30.507,30.507,0,0,1-7.056-7.336h1.68a24.667,24.667,0,0,1,4.48.28v-7a21.252,21.252,0,0,1-4.368.28h-2.3V39.688l4.536,2.464A65.808,65.808,0,0,0-126.176,30l-5.264-2.408a62.563,62.563,0,0,1-3.472,11.7V29.944a30.043,30.043,0,0,1,.28-5.152h-7.56a32.027,32.027,0,0,1,.28,5.208V43.272h-3.472a28.141,28.141,0,0,1-5.1-.28v7a30.446,30.446,0,0,1,5.152-.28h2.52a37.973,37.973,0,0,1-8.68,13.5,27.2,27.2,0,0,1,3.248,7.056c2.688-2.968,4.088-5.32,6.552-10.976-.112,1.568-.168,3.584-.168,5.712v6.16a42.408,42.408,0,0,1-.336,5.824h7.56a37.987,37.987,0,0,1-.28-5.656v-8.68a47.265,47.265,0,0,0-.28-5.432,41.06,41.06,0,0,0,4.7,6.552c.616-1.624.784-2.072,1.344-3.36Zm-22.9-37.632a50.068,50.068,0,0,1,3.3,11.984l5.208-2.464a72.107,72.107,0,0,0-3.36-12.04ZM-126.12,33.3a54.722,54.722,0,0,1,9.744,8.512l4.48-5.544a52.433,52.433,0,0,0-9.632-8.008Zm-1.736,13.832a54.271,54.271,0,0,1,9.744,8.568l4.424-5.376a57.078,57.078,0,0,0-9.576-8.064ZM-94.32,49.32a50.2,50.2,0,0,1,6.64-.8c7.76-.56,10.24-.8,13.48-1.28a17.688,17.688,0,0,0-5.56,4.04,13.928,13.928,0,0,0-3.8,9.4,10.7,10.7,0,0,0,5.72,9.64c2.44,1.36,4.96,2.08,9.36,2.64.76.12.84.12,1.36.24l.72-5.44c-.4.04-.76.04-.8.04a24.274,24.274,0,0,1-5.96-1.04c-3.36-1-5.32-3.4-5.32-6.52,0-4.04,3-8.04,8.08-10.68a17.889,17.889,0,0,1,7.92-2.16,6.194,6.194,0,0,1,.84.04l-.28-5.08a21.551,21.551,0,0,1-4.12.32c-10.68.52-17.52.88-20.44,1.04-5.88.4-5.88.4-6.6.4-.2,0-.64,0-1.52-.04Zm24.48,3.84a27,27,0,0,1,4.2,5.96l2.8-1.48a25.922,25.922,0,0,0-4.2-5.88Zm11.76,1.88a23.132,23.132,0,0,0-4.16-5.64l-2.68,1.4a29.471,29.471,0,0,1,4.08,5.8Zm15.52,3.76V58a16.006,16.006,0,0,1,.2-3.04H-47a20.8,20.8,0,0,1,.2,3.08v.76h-3.48a30.343,30.343,0,0,1-3.92-.24v4.36a28.842,28.842,0,0,1,3.88-.24h3.52v5.6a70.38,70.38,0,0,1-8.48,1h-.4l.72,4.72c1.56-.36,1.72-.4,3.16-.64,1.4-.28,2.48-.44,3.28-.6,3.6-.6,4.16-.72,5.56-1,2.44-.52,6.32-1.4,8.56-1.96V65.88c-2.88.72-3.88.92-8.16,1.72V62.68h3.84a34.618,34.618,0,0,1,3.68.2V58.6a24.745,24.745,0,0,1-3.72.2ZM-48.8,44a34.473,34.473,0,0,1-2.8,6.6c-1.4.08-1.68.08-2.2.08a14.223,14.223,0,0,1-1.72-.08l.52,4.68a8.073,8.073,0,0,1,1.76-.24c.28-.04.84-.12,1.72-.2.52-.08,1.32-.16,2.32-.24,7.36-.76,8.12-.88,11.28-1.36.36.64.64,1.16,1.36,2.6l3.32-2.44a46.571,46.571,0,0,0-6.04-8.72l-3.28,1.88c1.32,1.64,1.84,2.28,2.52,3.24-1.48.2-3.08.36-7.04.6A60,60,0,0,0-44.2,44h5.96a28.027,28.027,0,0,1,3.92.2V39.8a37.216,37.216,0,0,1-4.68.24H-50.92a33.523,33.523,0,0,1-4.36-.24v4.4A40.313,40.313,0,0,1-51.2,44Zm16-2.6a27.524,27.524,0,0,1,.2,4.24V61.76a28.126,28.126,0,0,1-.2,4.28h4.44a33.491,33.491,0,0,1-.16-4.24V45.56a26.975,26.975,0,0,1,.2-4.16Zm8-2.56a36.829,36.829,0,0,1,.24,4.88V69.6c0,1-.28,1.2-1.84,1.2a28.5,28.5,0,0,1-5.16-.52A16.055,16.055,0,0,1-30.4,74.6c1.6.12,2.88.2,4.24.2,2.6,0,3.68-.2,4.56-.92.96-.76,1.28-1.68,1.28-3.96V43.68a33.378,33.378,0,0,1,.24-4.84Zm29.68,5.8V46.6H-1.96a28.906,28.906,0,0,1-3.88-.16v3.8a30.487,30.487,0,0,1,3.88-.16H-.8A20.406,20.406,0,0,1,.36,52.8H-1.08a28.9,28.9,0,0,1-3.88-.16V56.4a29.686,29.686,0,0,1,3.88-.16H4.88v2H-.36a28.709,28.709,0,0,1-3.6-.16v3.48a29.958,29.958,0,0,1,3.6-.16H4.88v1.96H-1.48a23.93,23.93,0,0,1-3.84-.2v3.68a23.93,23.93,0,0,1,3.84-.2H4.88a27.845,27.845,0,0,1-.2,3.16h4.6a17.678,17.678,0,0,1-.2-3.16h7.2a25.117,25.117,0,0,1,3.88.2V63.16a25.375,25.375,0,0,1-3.92.2H9.08V61.4h5.76a29.66,29.66,0,0,1,3.56.16V58.08a28.006,28.006,0,0,1-3.56.16H9.08v-2h6.8a30.084,30.084,0,0,1,3.88.16V52.64a29.686,29.686,0,0,1-3.88.16h-2.2c.4-.84.68-1.44,1.2-2.72h1.64a32.467,32.467,0,0,1,3.92.16v-3.8a30.407,30.407,0,0,1-3.92.16H9.04V44.64H15.2a28.82,28.82,0,0,1,3.56.16V41a37.156,37.156,0,0,1-4.04.2H9.04a19.074,19.074,0,0,1,.2-2.88H4.68a24.222,24.222,0,0,1,.2,2.88H-.36a25.9,25.9,0,0,1-4-.2v3.76c.92-.08,1.72-.12,3.56-.12Zm5.76,5.44A24.115,24.115,0,0,1,9.52,52.8H4.36a22.662,22.662,0,0,0-1.08-2.72ZM-15.6,41.76A35.524,35.524,0,0,1-9.16,49l3.28-3.24A39.728,39.728,0,0,0-12.4,38.8Zm-.24,16.2a14.049,14.049,0,0,1,2.68-.2H-11v8.6a22.959,22.959,0,0,1-5.64,3.96l1.96,4.56c.32-.28.8-.64,1.16-.92a39.684,39.684,0,0,0,4.64-3.84,10.007,10.007,0,0,0,5.08,3.6c1.92.56,4.84.8,10.6.8,4.12,0,9.84-.08,13.64-.24a23.555,23.555,0,0,1,1.2-4.56,123.054,123.054,0,0,1-15.28.72c-5.76,0-8.4-.28-10.04-1.04A5.952,5.952,0,0,1-6.8,66.6V58a40.3,40.3,0,0,1,.16-4.36,17.615,17.615,0,0,1-3.04.2h-3a17.143,17.143,0,0,1-3.16-.2Zm41.52-8.64a50.2,50.2,0,0,1,6.64-.8c7.76-.56,10.24-.8,13.48-1.28a17.688,17.688,0,0,0-5.56,4.04,13.928,13.928,0,0,0-3.8,9.4,10.7,10.7,0,0,0,5.72,9.64c2.44,1.36,4.96,2.08,9.36,2.64.76.12.84.12,1.36.24l.72-5.44c-.4.04-.76.04-.8.04a24.274,24.274,0,0,1-5.96-1.04c-3.36-1-5.32-3.4-5.32-6.52,0-4.04,3-8.04,8.08-10.68a17.889,17.889,0,0,1,7.92-2.16,6.194,6.194,0,0,1,.84.04l-.28-5.08a21.551,21.551,0,0,1-4.12.32c-10.68.52-17.52.88-20.44,1.04-5.88.4-5.88.4-6.6.4-.2,0-.64,0-1.52-.04Zm24.48,3.84a27,27,0,0,1,4.2,5.96l2.8-1.48a25.922,25.922,0,0,0-4.2-5.88Zm11.76,1.88a23.132,23.132,0,0,0-4.16-5.64l-2.68,1.4a29.471,29.471,0,0,1,4.08,5.8ZM68,48.96c.84-.04,1.04-.08,2.72-.08a96.435,96.435,0,0,0,10.72-.56c.32.72.44.96.84,1.8.32.76.48,1,.72,1.48a78.694,78.694,0,0,1-11.32.76,23.707,23.707,0,0,1-4.12-.16l.16,4.36c.68-.08.96-.08,1.64-.12,8.68-.28,11.24-.44,15.48-1.08a24.082,24.082,0,0,0,3.08,4.48A27.566,27.566,0,0,0,81,59c-4.04,0-7.24.68-9.32,2a6.68,6.68,0,0,0-3.36,5.56,6.442,6.442,0,0,0,3.08,5.48C73.64,73.4,76.56,74,81.16,74A38.511,38.511,0,0,0,91.4,72.64a19.784,19.784,0,0,1,2.6-.6l-.72-4.92c-2.52,1.4-8.16,2.6-12.32,2.6a15.591,15.591,0,0,1-5.72-.88,2.637,2.637,0,0,1-1.72-2.32,2.886,2.886,0,0,1,1.72-2.44,15.43,15.43,0,0,1,6.72-1.12,21.51,21.51,0,0,1,9.2,1.64l3.52-2.52a40,40,0,0,1-5.36-7.32c.48-.12.48-.12,1.48-.32.96-.2,2.28-.48,3.92-.88.92-.24,1.76-.4,2.52-.52l-.4-4.36a20.2,20.2,0,0,1-3.8,1.16c-.24.04-2.08.44-5.52,1.16a36.018,36.018,0,0,1-1.56-3.28c1.24-.16,5.68-1.04,8.36-1.68.96-.2.96-.2,1.36-.28l-.4-4.24a67.2,67.2,0,0,1-10.8,2.4,23.448,23.448,0,0,1-1.64-4.84l-5,.68c.04.08.6,1.32,1.6,3.64.32.72.32.72.44,1.04a71.088,71.088,0,0,1-8.24.44,33.557,33.557,0,0,1-3.84-.16Zm70.4,18.8c-.56-.32-.76-.48-1.44-.92A35.778,35.778,0,0,0,126,61.2c-.04-.96-.04-.96-.16-4.84,1.56-.08,2.16-.12,2.72-.16,3-.28,4.8-.48,5.4-.56.92-.12,1.92-.24,2.6-.28l-.12-4.4a29.6,29.6,0,0,1-4.96.88c-3.68.4-3.68.4-5.68.52-.04-2.48-.04-2.96-.08-3.96,3.52-.2,5.08-.32,8.6-.8a25.019,25.019,0,0,1,3.16-.36l-.2-4.44c-2.6.76-6.08,1.2-11.52,1.52a24.8,24.8,0,0,1,.28-4.88h-5.08a28.541,28.541,0,0,1,.2,5.04c-1,.04-2.36.08-3,.08a52.6,52.6,0,0,1-10.76-.84l-.04,4.44H108c.12,0,.44,0,.88.04,2.68.2,7.84.4,9.8.4.6,0,1.24,0,2.52-.04.04,2.28.04,3.64.04,4-1.12.04-2.48.08-3.28.08a51.579,51.579,0,0,1-9.32-.68l-.08,4.32c.6,0,1,0,1.52.04,3.32.24,4.8.28,7.24.28.84,0,2.08-.04,4-.08.04,1.6.04,1.6.08,2.16v.88a7.707,7.707,0,0,1,.04.96,20.9,20.9,0,0,0-2.68-.16c-6.72,0-10.68,2.56-10.68,6.92,0,3.96,3.36,6.24,9.2,6.24,2.92,0,5.08-.56,6.6-1.72s2.24-2.88,2.24-5.4v-.44a17.8,17.8,0,0,1,2.16,1,26.99,26.99,0,0,1,7.4,5.48Zm-16.88-3.08v.96a5.071,5.071,0,0,1-.48,2.56c-.56.8-1.8,1.28-3.48,1.28-2.84,0-4.56-.92-4.56-2.4,0-1.72,1.96-2.76,5.2-2.76A14.039,14.039,0,0,1,121.52,64.68Zm46.72-13.96v-2.6c3.16-.08,3.88-.08,4.84-.08,3.32,0,5.24.08,6.72.2l-.04-4.6c-1.48.16-4.6.24-11.56.28a31.451,31.451,0,0,1,.2-4.76l-5.04.04c.2,1.04.2,1.04.24,4.84-2.08.08-2.08.08-3.4.12-3.28.08-3.68.08-6.28.16-5.16.2-5.8.2-6.8.2a17.419,17.419,0,0,1-1.96-.08l.16,4.76c1.08-.16,1.08-.16,7.12-.6,1.76-.12,5.52-.24,11.24-.4,0,1.08,0,3.32.04,3.4a1.648,1.648,0,0,0,.04.48,6.684,6.684,0,0,0-4.16-1.2c-4.64,0-7.96,3.04-7.96,7.28a6.25,6.25,0,0,0,2.76,5.4A7.371,7.371,0,0,0,159.04,65a6.589,6.589,0,0,0,5.88-2.84c-.32,2.24-1.92,4.28-4.64,5.84a18.877,18.877,0,0,1-6.8,2.32,13.128,13.128,0,0,1,2.84,4.52,27.962,27.962,0,0,0,7.24-3.28,12.834,12.834,0,0,0,5.96-10.8,12.173,12.173,0,0,0-1.28-5.64c0-.48-.04-.8-.04-.96Zm-4.6,6.6a3.645,3.645,0,0,1-3.92,3.6,3.157,3.157,0,0,1-3.4-3.16,3.5,3.5,0,0,1,3.72-3.2C162.24,54.56,163.64,55.64,163.64,57.32Zm27.92,6.4a14.286,14.286,0,0,1-.08-1.68c0-.56,0-.56.08-2.92l.56-13.6c.08-1.72.24-3.8.36-4.88h-6.56c.16,1.12.28,3.12.36,4.88l.56,13.6c.12,2.44.12,2.44.12,2.88,0,.48-.04.88-.08,1.72Zm.56,8.76V67h-5.8v5.48Zm13-8.76a14.286,14.286,0,0,1-.08-1.68c0-.56,0-.56.08-2.92l.56-13.6c.08-1.72.24-3.8.36-4.88h-6.56c.16,1.12.28,3.12.36,4.88l.56,13.6c.12,2.44.12,2.44.12,2.88,0,.48-.04.88-.08,1.72Zm.56,8.76V67h-5.8v5.48Z" transform="translate(472.624 34.125)" fill="#fff"/>
</svg>
