<svg xmlns="http://www.w3.org/2000/svg" width="537" height="48.776" viewBox="0 0 537 48.776">
  <g id="グループ_11" data-name="グループ 11" transform="translate(-846 -5733.224)">
    <path id="プレゼント動画_その3" data-name="プレゼント動画 その3" d="M8.192-23.52a32.715,32.715,0,0,1-5.024-.224v4.9a37.519,37.519,0,0,1,4.96-.192H22.144A21.316,21.316,0,0,1,12.608-5.7a25.988,25.988,0,0,1-6.88,3.168A14.535,14.535,0,0,1,9.12,2.048c5.5-2.464,9.12-4.96,12.064-8.416a30.572,30.572,0,0,0,6.336-12.96l.128-.448h.128a3.537,3.537,0,0,0,3.52-3.552,3.544,3.544,0,0,0-3.552-3.552,3.532,3.532,0,0,0-3.52,3.3,11.647,11.647,0,0,1-1.376.064ZM27.744-24.9a1.571,1.571,0,0,1,1.568,1.568,1.571,1.571,0,0,1-1.568,1.568,1.571,1.571,0,0,1-1.568-1.568A1.571,1.571,0,0,1,27.744-24.9ZM37.952-25.5a26.266,26.266,0,0,1,.192,3.616,2.113,2.113,0,0,1-.032.448L37.984-4.32a7.682,7.682,0,0,1-.32,2.944L40.1,1.5A7.464,7.464,0,0,1,42.016.96c9.312-1.7,14.816-5.152,19.36-12.16a15.828,15.828,0,0,1-3.648-3.9A19.427,19.427,0,0,1,51.52-7.872a21.271,21.271,0,0,1-8.544,3.616l.192-17.216a27.408,27.408,0,0,1,.224-3.968Zm48.192.576a16.971,16.971,0,0,1,2.624,4.192l2.752-1.28a16,16,0,0,0-2.656-4.1Zm3.776-1.664a19.968,19.968,0,0,1,2.624,4.256L95.2-23.68a17.739,17.739,0,0,0-2.688-4.1ZM72.352-18.336l-2.656.288c-1.5.16-2.592.256-3.232.256-.192,0-.544,0-.96-.032l.48,4.7a27.459,27.459,0,0,1,4.192-.672l2.176-.288v7.168c0,2.784.032,3.3.32,4.32A4.466,4.466,0,0,0,75.552.384,21.58,21.58,0,0,0,81.44.96C83.2.96,85.472.832,88.1.576A29.545,29.545,0,0,1,91.648.288L91.456-4.8a24.755,24.755,0,0,1-4.288.928,51.036,51.036,0,0,1-5.664.384,17.4,17.4,0,0,1-2.816-.192c-.9-.16-1.312-.544-1.44-1.312a12.69,12.69,0,0,1-.128-2.592v-7.008l9.984-1.28a11.741,11.741,0,0,1-2.5,3.232A17.07,17.07,0,0,1,80.96-9.952,13.372,13.372,0,0,1,84.8-6.816a24.789,24.789,0,0,0,4.512-4.192,27.343,27.343,0,0,0,3.424-5.536,5.681,5.681,0,0,1,.96-1.632L90.944-20.7a5.779,5.779,0,0,1-2.368.544L77.152-18.848v-3.1a20.4,20.4,0,0,1,.224-3.616H72.128a19.552,19.552,0,0,1,.224,3.712Zm27.04-2.08a33.809,33.809,0,0,1,8.416,6.624l3.232-4.192a44.835,44.835,0,0,0-8.512-6.208ZM100.928.9a11.675,11.675,0,0,1,1.6-.448c.608-.128.608-.128,1.408-.288a40.622,40.622,0,0,0,9.312-3.328c5.568-2.944,9.344-7.168,12.512-14.016A17.408,17.408,0,0,1,121.7-20.9a27.715,27.715,0,0,1-3.232,6.368,19.881,19.881,0,0,1-9.408,7.84A30.592,30.592,0,0,1,99.52-4.352Zm40.448.8a39.6,39.6,0,0,1-.192-4.448v-9.216a10.977,10.977,0,0,0,1.216.576,70.273,70.273,0,0,1,10.72,5.824l2.624-4.608a77.116,77.116,0,0,0-14.56-6.72V-21.76a28.191,28.191,0,0,1,.192-4.288H136.16a27.937,27.937,0,0,1,.192,4.288V-2.816A33.07,33.07,0,0,1,136.16,1.7Zm26.784-23.52h-3.712a20.2,20.2,0,0,1-3.04-.16v3.328a26.951,26.951,0,0,1,3.04-.128h3.712V-17.6H165.5c-1.408,0-2.272-.032-3.2-.1a23.454,23.454,0,0,1,.128,2.944v4.192a23.627,23.627,0,0,1-.128,3.008c.928-.032,1.632-.064,3.2-.064h2.656V-6.4h-3.136a26.141,26.141,0,0,1-3.072-.128v3.264a30.04,30.04,0,0,1,3.04-.128h3.168v1.536c-1.888.064-4.256.128-4.992.128a18.055,18.055,0,0,1-2.016-.064l.64,3.9c.864-.1,1.44-.16,1.984-.192,5.632-.384,5.792-.384,13.376-1.12a12.321,12.321,0,0,1,1.856,2.144,21.256,21.256,0,0,0,2.56-4.224,10.777,10.777,0,0,1,.64,3.52c.48.032,1.5.032,2.656.032,2.464,0,3.648-.64,4.16-2.3.768-2.3,1.12-6.5,1.248-14.688.1-4.768.1-4.864.224-6.144a26.141,26.141,0,0,1-3.072.128h-2.688c0-1.888.032-3.232.032-3.424a13.665,13.665,0,0,1,.192-2.752h-4.352a20.566,20.566,0,0,1,.192,4.192v1.984h-.384a10.683,10.683,0,0,1-2.016-.128v4.1a14.944,14.944,0,0,1,2.3-.128c-.352,7.264-1.152,10.912-3.264,14.5-3.9.32-3.9.32-5.664.416V-3.392h3.68a8.309,8.309,0,0,1,2.048.16V-6.5c-.832.064-1.44.1-3.072.1h-2.656V-7.616h2.912c1.568,0,2.272,0,2.848.064-.032-.736-.032-.736-.064-2.88V-14.88a18.748,18.748,0,0,1,.1-2.784c-.736.064-1.12.064-2.624.064h-3.168v-1.184h3.808a13.87,13.87,0,0,1,2.176.1v-3.264a22.991,22.991,0,0,1-3.008.128h-2.976v-1.5c3.424-.416,3.424-.416,4.32-.544a3.722,3.722,0,0,1,.512-.1c.672-.1.672-.1.864-.128a2.267,2.267,0,0,1,.448-.032l-2.144-3.1c-2.016.9-7.584,1.5-14.208,1.536a14.2,14.2,0,0,1,1.28,2.912c2.24-.064,3.072-.1,5.312-.256Zm0,6.784v1.216h-2.24V-15.04Zm3.616,0h2.272v1.216h-2.272Zm-3.616,3.648v1.216h-2.24v-1.216Zm3.616,0h2.272v1.216h-2.272Zm14.752-5.5c-.192,8.416-.256,9.7-.608,12.192-.32,2.688-.608,3.1-1.92,3.1a17.621,17.621,0,0,1-2.176-.192c1.76-4.064,2.528-8.064,2.784-15.1Zm19.456-5.5v2.368h-3.392a18.376,18.376,0,0,1-2.624-.128,17.4,17.4,0,0,1,.128,2.432v11.52a21.82,21.82,0,0,1-.1,2.4c.384-.032,1.344-.1,1.6-.1h12.8c.256,0,1.184.064,1.568.1a20.269,20.269,0,0,1-.1-2.4v-11.52A16.825,16.825,0,0,1,216-20.16a18.159,18.159,0,0,1-2.592.128h-3.456V-22.4h8.48c1.408,0,2.912.064,4.192.192v-4.128c-1.376.128-2.72.192-4.224.192H197.5a39.78,39.78,0,0,1-4.128-.192v4.128c1.376-.128,2.72-.192,4.192-.192Zm.128,5.92v2.656H203.68V-16.48Zm0,6.048V-7.36H203.68v-3.072ZM209.76-7.36v-3.072h2.592V-7.36Zm0-6.464V-16.48h2.592v2.656Zm7.808-5.888a19.176,19.176,0,0,1,.128,2.656V-2.24H198.272V-16.992a17.656,17.656,0,0,1,.128-2.72h-4.32a36.24,36.24,0,0,1,.192,3.648V-1.6a38.634,38.634,0,0,1-.224,4.448h4.32V1.472h19.2V2.848h4.32a41.767,41.767,0,0,1-.224-4.512v-14.3c0-1.088.064-2.56.192-3.744Zm23.538.482a15.893,15.893,0,0,1,2.22-.21c5.28-.3,5.88-.36,7.56-.57a52.582,52.582,0,0,1-8.37,6.69,43.4,43.4,0,0,1-5.52.54,4.908,4.908,0,0,1-.6-.03l.39,4.35c.75-.15,1.11-.24,1.56-.3,1.95-.27,3.39-.48,4.29-.57,1.02-.12,1.02-.12,2.73-.36,1.83-.21,2.97-.36,3.45-.45a7.177,7.177,0,0,0-2.28,1.92,5.56,5.56,0,0,0-1.38,3.78c0,2.88,2.1,5.13,5.46,5.82a24.22,24.22,0,0,0,4.44.45h.57c1.83-.06,1.83-.06,2.13-.06a6.525,6.525,0,0,1,.75.03l-.18-4.53a17.84,17.84,0,0,1-3.24.3c-3.6,0-5.49-.9-5.49-2.67,0-1.5,1.5-3.12,3.78-4.14a19.867,19.867,0,0,1,8.43-1.41c.48,0,.48,0,.96.03l-.21-4.26a5.9,5.9,0,0,1-1.05.18c-.18,0-.87.06-1.86.15-.42.03-1.62.12-3.3.24-2.49.18-5.1.42-7.35.66a77.654,77.654,0,0,0,7.44-5.94,14.842,14.842,0,0,1,1.92-1.59l-2.25-2.97a10.429,10.429,0,0,1-3.06.51c-2.16.18-6.36.33-9,.33a22.909,22.909,0,0,1-3.18-.15Zm41.25.3a5.835,5.835,0,0,1,2.79.96,7.291,7.291,0,0,1,3.21,6.27,8.24,8.24,0,0,1-4.14,7.38,15.04,15.04,0,0,1-5.94,1.44,12.3,12.3,0,0,1,2.22,4.26,21.415,21.415,0,0,0,4.77-1.23c4.8-1.89,7.53-6.12,7.53-11.58,0-7.02-4.8-11.52-12.33-11.52a13.917,13.917,0,0,0-10.56,4.32,12.942,12.942,0,0,0-3.36,8.91c0,5.16,2.64,8.79,6.36,8.79,2.58,0,4.56-1.77,6.24-5.58A42.326,42.326,0,0,0,282.356-18.93Zm-4.38.06a38.624,38.624,0,0,1-2.4,9.66c-.96,2.43-1.89,3.6-2.76,3.6-1.17,0-2.13-1.83-2.13-4.08a9.836,9.836,0,0,1,3.69-7.68A6.742,6.742,0,0,1,277.976-18.87ZM298.348-6.154a9.726,9.726,0,0,0,1.972,4.08C302.258.2,305.386,1.36,309.534,1.36c3.944,0,7-.986,8.942-2.89a7.1,7.1,0,0,0,2.074-5,6.721,6.721,0,0,0-1.6-4.692,7.725,7.725,0,0,0-4.794-2.346c2.312-.68,3.2-1.156,4.114-2.244a6.561,6.561,0,0,0,1.5-4.42,6.62,6.62,0,0,0-1.9-4.624c-1.768-1.768-4.59-2.72-8.058-2.72-3.638,0-6.426.986-8.364,2.924a9.25,9.25,0,0,0-2.38,4.25l6.052.952a4.572,4.572,0,0,1,.85-1.87,4.388,4.388,0,0,1,3.57-1.5c2.822,0,4.25,1.088,4.25,3.3a3.269,3.269,0,0,1-1.564,2.924,7.129,7.129,0,0,1-3.74.782,25.349,25.349,0,0,1-3.23-.2v5a36.463,36.463,0,0,1,4.114-.17c3.4,0,5.134,1.326,5.134,3.876,0,2.414-1.9,3.944-4.9,3.944a5.625,5.625,0,0,1-4.012-1.428,3.849,3.849,0,0,1-1.258-2.448Z" transform="translate(846 5761)" fill="#9d752a"/>
    <line id="線_6" data-name="線 6" x2="537" transform="translate(846 5781.5)" fill="none" stroke="#9d752a" stroke-width="1"/>
  </g>
</svg>
