<svg xmlns="http://www.w3.org/2000/svg" xmlns:xlink="http://www.w3.org/1999/xlink" width="564.493" height="188.085" viewBox="0 0 564.493 188.085">
  <defs>
    <clipPath id="clip-path">
      <path id="パス_27" data-name="パス 27" d="M-135.84-45.04a51.692,51.692,0,0,1,6.96,9.92l6.4-3.76a46.444,46.444,0,0,0-7.12-9.68Zm-9.12,4.96a43.953,43.953,0,0,1,7.12,10.24l6.56-3.84a40.119,40.119,0,0,0-7.12-10.08ZM-180.88-50a13.867,13.867,0,0,1,2.8.24,150.256,150.256,0,0,0,16.56.96,71.155,71.155,0,0,0,9.12-.48c-2.32,1.36-7.76,4.72-10.56,6.56l8.16,6.08c7.68-5.68,17.04-11.52,21.84-13.68l-.4-10.56c-4.32.96-11.28,1.44-20.96,1.44-11.68,0-20.96-.72-25.84-2Zm6.4,16.96c-7.6,6.08-10.88,11.68-10.88,18.24s3.52,11.2,10.72,13.92c4.48,1.76,11.44,2.64,21.04,2.64A126.049,126.049,0,0,0-135.52.48a68.638,68.638,0,0,1,7.2-.72l-.88-13.12c-5.36,2.08-16.16,3.52-26,3.52-12.48,0-18-2.08-18-6.72,0-3.12,2.32-6.48,7.2-10.4ZM-48.8-58A39.823,39.823,0,0,1-56-49.28c-2-1.44-2.48-1.76-4-3.04a75.558,75.558,0,0,0,7.76-8.8l-8-4.96a38.73,38.73,0,0,1-6.08,7.84c-3.04-3.52-3.84-4.72-4.8-8.08a42.256,42.256,0,0,1-6.72.32H-92.96a39.43,39.43,0,0,1-6.96-.4v9.04c-1.2-1.04-1.92-1.6-4.08-3.28l-7.36,6.08a63.321,63.321,0,0,1,10.48,9.36,63.96,63.96,0,0,1-13.44,6.48,33.7,33.7,0,0,1,4.72,9.28c3.76-1.68,5.04-2.32,7.52-3.68a43.264,43.264,0,0,1,.24,4.72v10.64c0,2.56-.08,3.76-.24,5.92,1.2-.08,2.96-.16,5.52-.16h9.92l-7.84,2.4a32.719,32.719,0,0,1,3.2,5.52h-13.2a50.122,50.122,0,0,1-7.84-.4V5.68a61.658,61.658,0,0,1,8.56-.4h55.6a58.9,58.9,0,0,1,8.56.4V-4.48a50.122,50.122,0,0,1-7.84.4H-60.32A14.465,14.465,0,0,0-59.2-6.16c.4-.72.48-.88,1.76-3.36L-65.76-12h10.4c4.32.08,4.32.08,5.44.16a54.889,54.889,0,0,1-.24-5.92V-28.48a40.86,40.86,0,0,1,.24-4.96,71.355,71.355,0,0,0,7.68,3.68,36.411,36.411,0,0,1,4.48-9.76,65.553,65.553,0,0,1-10.8-4.88,74.634,74.634,0,0,0,6.32-6.88c.96-1.2.96-1.2,1.52-1.84Zm-37.68.56a35.563,35.563,0,0,1-6.4,6.56c-2.16-2.16-4-3.84-6.8-6.32a37.423,37.423,0,0,1,4.4-.24Zm-3.36,20.48a35.99,35.99,0,0,1,4.48-.24H-66.4a36.561,36.561,0,0,1,4.96.24v-4a50.929,50.929,0,0,0,9.68,6.48,10.957,10.957,0,0,0,1.12.64A48.488,48.488,0,0,1-56-33.6H-95.76c-2.24,0-3.12,0-5.12-.16A83.661,83.661,0,0,0-89.84-41.2Zm4.96-8.4a66.925,66.925,0,0,0,9.04-10.16A62.791,62.791,0,0,0-66.8-45.36Zm3.92,41.28A42.382,42.382,0,0,0-84.8-12h17.28a43.886,43.886,0,0,1-3.52,7.92ZM-91.92-25.36h31.6v5.04h-31.6ZM-20.4-40.4V-36h-3.52a53.381,53.381,0,0,1-8-.48v9.68A50.774,50.774,0,0,1-24-27.28h3.6V-5.76A88.64,88.64,0,0,1-32.48-4.48l1.36,10.32c2.56-.64,2.56-.64,7.04-1.44A156.5,156.5,0,0,0-3.68-.48l-.08-8.88c-3.2.96-4,1.12-7.52,1.92V-27.28h3.12a37.845,37.845,0,0,1,5.84.32v-6a56.011,56.011,0,0,1,7.12-.32h9.36v13.6C7.52-14.56,2.08-11.2-3.44-8.88L.48.24c2.16-1.36,2.96-1.92,4.4-2.96A28.219,28.219,0,0,1,7.12,6.64c3.2.16,5.2.24,6.88.24,7.12,0,9.52-1.92,9.44-7.92V-8.8c-.16-3.52-.4-6.32-.56-8.32,4,9.92,6.96,14.24,14.48,20.8a45.418,45.418,0,0,1,5.52-9.6A37.117,37.117,0,0,1,31.52-16.48,78.124,78.124,0,0,0,41.6-26.88L34.48-32.4a31.814,31.814,0,0,1-7.28,8.48,42.866,42.866,0,0,1-3.04-9.36h9.52a77.268,77.268,0,0,1,7.76.4v-9.44a49.848,49.848,0,0,1-7.6.4c.24-4.88.4-8.32.48-10.24.56-11.68.56-11.68.8-13.28a56.415,56.415,0,0,1-7.28.32H8.24a56.267,56.267,0,0,1-8.08-.4v9.28a59.876,59.876,0,0,1,7.52-.32H24.8c-.08,1.12-.08,1.76-.08,2.48,0,.32-.08.32-.08.64H9.2a41.711,41.711,0,0,1-7.44-.4v8.72a58.443,58.443,0,0,1,7.44-.32H24.24l-.16,3.52H4.8a66.492,66.492,0,0,1-7.68-.4v6.08a46.339,46.339,0,0,1-5.2.24h-3.2v-4.4H-9.2a24.761,24.761,0,0,1,4.56.24V-45.6l.24.24A39.679,39.679,0,0,1,1.36-54c-5.92-3.92-9.12-7.36-11.68-12.72H-20.56a34.832,34.832,0,0,1-13.6,16.4,29.054,29.054,0,0,1,4,9.36,34.313,34.313,0,0,0,3.52-2.88v3.68a43.168,43.168,0,0,1,4.48-.24ZM14.16-4.16c0,1.68-.56,2-3.28,2A32.435,32.435,0,0,1,5.12-2.8a97.883,97.883,0,0,0,9.04-7.12Zm-36-44.48a45.563,45.563,0,0,0,6.8-9.52,42.836,42.836,0,0,0,7.12,9.52H-21.84Zm.08,38.96a80.713,80.713,0,0,0-3.52-15.2l-6.88,2.24A80.967,80.967,0,0,1-28.88-7.36Zm17.04-.72A64.411,64.411,0,0,0-.96-22.88L-7.6-25.04a53.875,53.875,0,0,1-3.04,12.56ZM-1.6-27.6C1.6-24.08,2.96-22.08,6-16.16l7.2-5.28a53.342,53.342,0,0,0-7.76-10.8ZM86.8-68.56c-.96,2.48-4.4,7.44-7.76,11.04-1.12-.8-1.92-1.36-3.76-2.72L68.56-52.8a92.76,92.76,0,0,1,14.4,11.6L80-38.56c-4.56.08-4.56.08-5.68.16H71.84c-.8,0-2-.08-2.48-.08-1.36-.16-1.36-.16-1.84-.24l1.04,10.24c2.32-.4,2.64-.4,8.96-.8,1.68-.16,1.84-.16,4.16-.32a30.119,30.119,0,0,1-9.92,9.28,36.3,36.3,0,0,1-7.12,3.76V-34.88c2.96-4.08,4.56-6.32,4.88-6.8a27.712,27.712,0,0,1,2.16-3.2l-8.4-5.68a38.158,38.158,0,0,1-4.72,7.6A60.969,60.969,0,0,1,45.52-30.4,38.643,38.643,0,0,1,49.6-20a32.879,32.879,0,0,0,5.04-4.8c-.08,4.4-.08,4.4-.08,5.04V-2a58.559,58.559,0,0,1-.48,8.64H64.96a92.517,92.517,0,0,1-.32-9.36V-15.68A32.855,32.855,0,0,1,70-8.08,59.516,59.516,0,0,0,78.64-14a45.464,45.464,0,0,0,5.92,5.84A62.508,62.508,0,0,1,64.72-2.08a35.1,35.1,0,0,1,4.48,9.2A67.645,67.645,0,0,0,93.12-1.84a70.47,70.47,0,0,0,24.72,8.48,46.183,46.183,0,0,1,4.4-10.4A64.794,64.794,0,0,1,102-8.4a85.707,85.707,0,0,0,11.52-12.24,16.933,16.933,0,0,1,1.2-1.68l-5.6-5.12a46.528,46.528,0,0,1-6.32.32H90.56c.96-1.44,1.2-1.84,2.08-3.28,5.04-.4,10.88-.96,17.6-1.68,1.04,2.08,1.44,2.88,2.96,5.84l8.88-5.04A167.232,167.232,0,0,0,110.4-49.36l-8.16,4.56c1.92,2.72,2.4,3.36,3.52,5.04-4.96.4-9.04.64-12.32.8,4.08-3.84,11.36-11.36,13.76-14.32a47.873,47.873,0,0,1,3.52-4.16l-9.28-5.52c-1.6,3.12-5.2,7.76-11.52,14.64-1.44-1.44-2.08-2-3.92-3.6,2.8-3.04,6.24-7.12,8.48-10.08,1.28-1.76,1.28-1.76,2-2.72ZM99.68-19.12a55.691,55.691,0,0,1-6.72,5.92,26.829,26.829,0,0,1-6.4-5.92ZM62.72-68.8a22.959,22.959,0,0,1-3.12,4.56c-3.6,4.32-7.28,7.2-13.2,10.4a30.656,30.656,0,0,1,5.2,9.04A66.754,66.754,0,0,0,66.64-57.36c2.48-2.96,2.48-2.96,4.4-5.36ZM166.48-45.432a14,14,0,0,1,6.7,2.3,17.5,17.5,0,0,1,7.7,15.048c0,7.632-3.744,14.328-9.936,17.712-3.384,1.8-7.848,2.952-14.256,3.456a29.521,29.521,0,0,1,5.328,10.224A51.4,51.4,0,0,0,173.464.36c11.52-4.536,18.072-14.688,18.072-27.792,0-16.848-11.52-27.648-29.592-27.648-10.3,0-19.152,3.6-25.344,10.368a31.062,31.062,0,0,0-8.064,21.384c0,12.384,6.336,21.1,15.264,21.1,6.192,0,10.944-4.248,14.976-13.392C162.52-23.976,165.04-33.552,166.48-45.432Zm-10.512.144a92.7,92.7,0,0,1-5.76,23.184c-2.3,5.832-4.536,8.64-6.624,8.64-2.808,0-5.112-4.392-5.112-9.792a23.606,23.606,0,0,1,8.856-18.432A16.18,16.18,0,0,1,155.968-45.288ZM-209.84,59.76c.96,0,1.04,0,2.96.08a86.483,86.483,0,0,1-.32-8.72V31.76a69.657,69.657,0,0,1,.32-8.88,57.823,57.823,0,0,1-7.36.32h-24a41.576,41.576,0,0,1-7.6-.4c.24,3.2.32,5.12.32,8.64v51.6a63.159,63.159,0,0,1-8.88,1.12l1.84,10.72c.8-.24,1.68-.48,3.28-.88l10.64-2.32c7.76-1.84,9.84-2.4,15.76-4.08l-.08-7.28a48.027,48.027,0,0,0,3.84,4.8,52.176,52.176,0,0,0,12.16,9.92,32.479,32.479,0,0,1,5.6-9.84,39.115,39.115,0,0,1-13.04-10c2.88-2.08,5.84-4.4,7.44-5.84,3.28-2.8,3.84-3.36,4.32-3.6Zm-2.88-.08h1.84a51.763,51.763,0,0,1-8.48,7.6,31.435,31.435,0,0,1-2.4-7.6Zm-22.88,0h4.56c1.6,8,3.36,12.72,6.8,18.56a112.083,112.083,0,0,1-11.36,2.8Zm0-27.36h18.56v5.04H-235.6Zm0,13.52h18.56V51.2H-235.6ZM-274.4,84.8a85.055,85.055,0,0,1-.48,10H-264c-.32-3.28-.4-6.4-.4-10V32h7.52c-2.48,8.08-3.6,11.12-6.72,17.12,2.8,3.28,3.84,4.96,4.88,7.52a20.226,20.226,0,0,1,1.68,8c0,2.4-.88,3.12-3.68,3.12a22.924,22.924,0,0,1-2.88-.24c1.36,2.88,1.76,5.04,1.92,9.92,3.92-.08,6.96-.48,8.88-1.28,3.6-1.36,5.6-4.8,5.6-9.36,0-6.72-1.52-10.88-6.48-18.24a143.5,143.5,0,0,0,7.04-16.88c.4-1.12.72-2.08,1.04-2.8l-4.96-6.56c-1.04.32-2.56.4-6,.4h-12.08a38.683,38.683,0,0,1-6.08-.32c.32,4.56.32,5.36.32,8.08Zm110.24-4.4c-5.04-2.24-7.84-4.72-10.96-9.92,1.2-3.92,2.24-7.6,3.2-11.6l-10.48-1.92a53.446,53.446,0,0,1-5.44,17.28,48.514,48.514,0,0,1-9.76,12.88,33.471,33.471,0,0,1,8.16,7.92,58.27,58.27,0,0,0,10.32-14.88A28.5,28.5,0,0,0-166.4,90c5.44,2.16,13.52,3.2,24.8,3.2,4.32,0,9.12-.08,16-.24a40.974,40.974,0,0,1,2.48-10.72c-8.8.72-13.92.96-19.2.96a103.09,103.09,0,0,1-11.84-.56V70.8h14.72a55.593,55.593,0,0,1,8.08.4v-10a52.33,52.33,0,0,1-8.08.4h-14.72V52.8h11.92a57.9,57.9,0,0,1,8.32.4v-6h8.96a44.877,44.877,0,0,1-.4-6.64V33.68a48.987,48.987,0,0,1,.32-6.08c-3.12.24-6,.32-9.2.32h-21.04v-2.4a24.764,24.764,0,0,1,.4-5.04H-166.4a25.577,25.577,0,0,1,.4,5.12v2.32h-20.24c-3.2,0-6.08-.08-9.2-.32a50.711,50.711,0,0,1,.32,6.08v6.8a39.759,39.759,0,0,1-.4,6.72h9.12v6a58.585,58.585,0,0,1,8.32-.4h13.92Zm28.88-37.04c-2,.16-4,.24-6.96.24h-35.84c-3.04,0-5.04-.08-6.96-.24v-6h49.76ZM-96.64,29.2c-6.64,0-9.12-.08-12.56-.56V40.88a93.8,93.8,0,0,1,12.4-.48h35.04C-65.44,54.96-73.28,65.92-85.6,73.76a64.97,64.97,0,0,1-17.2,7.92c4.56,4.56,5.84,6.32,8.48,11.44,13.76-6.16,22.8-12.4,30.16-21.04,7.36-8.56,12.48-18.96,15.84-32.4l.32-1.12h.32a8.843,8.843,0,0,0,8.8-8.88,8.86,8.86,0,0,0-8.88-8.88,8.83,8.83,0,0,0-8.8,8.24A29.119,29.119,0,0,1-60,29.2Zm48.88-3.44a3.926,3.926,0,0,1,3.92,3.92,3.926,3.926,0,0,1-3.92,3.92,3.926,3.926,0,0,1-3.92-3.92A3.926,3.926,0,0,1-47.76,25.76Zm25.52-1.52a65.666,65.666,0,0,1,.48,9.04,5.281,5.281,0,0,1-.08,1.12l-.32,42.8c0,4.32-.16,5.52-.8,7.36l6.08,7.2a18.659,18.659,0,0,1,4.8-1.36C11.2,86.16,24.96,77.52,36.32,60a39.569,39.569,0,0,1-9.12-9.76A48.568,48.568,0,0,1,11.68,68.32,53.178,53.178,0,0,1-9.68,77.36l.48-43.04a68.518,68.518,0,0,1,.56-9.92Zm122.4,1.44a42.427,42.427,0,0,1,6.56,10.48l6.88-3.2a39.988,39.988,0,0,0-6.64-10.24Zm9.44-4.16a49.92,49.92,0,0,1,6.56,10.64l6.64-3.36a44.349,44.349,0,0,0-6.72-10.24ZM65.68,42.16l-6.64.72c-3.76.4-6.48.64-8.08.64-.48,0-1.36,0-2.4-.08l1.2,11.76a68.648,68.648,0,0,1,10.48-1.68l5.44-.72V70.72c0,6.96.08,8.24.8,10.8a11.165,11.165,0,0,0,7.2,7.44c2.96.96,8.08,1.44,14.72,1.44,4.4,0,10.08-.32,16.64-.96,7.12-.72,7.12-.72,8.88-.72L113.44,76a61.888,61.888,0,0,1-10.72,2.32,127.591,127.591,0,0,1-14.16.96,43.488,43.488,0,0,1-7.04-.48c-2.24-.4-3.28-1.36-3.6-3.28-.24-1.28-.24-1.28-.32-6.48V51.52l24.96-3.2a29.353,29.353,0,0,1-6.24,8.08,42.676,42.676,0,0,1-9.12,6.72,33.431,33.431,0,0,1,9.6,7.84c5.76-4.48,8.4-6.96,11.28-10.48a68.357,68.357,0,0,0,8.56-13.84,14.2,14.2,0,0,1,2.4-4.08l-6.88-6.32c-1.68.8-2.32.96-5.92,1.36L77.68,40.88V33.12a51.006,51.006,0,0,1,.56-9.04H65.12a48.881,48.881,0,0,1,.56,9.28Zm69.52-5.2a84.521,84.521,0,0,1,21.04,16.56l8.08-10.48c-6.4-5.92-10.96-9.28-21.28-15.52Zm3.84,53.28a29.187,29.187,0,0,1,4-1.12c1.52-.32,1.52-.32,3.52-.72a101.556,101.556,0,0,0,23.28-8.32c13.92-7.36,23.36-17.92,31.28-35.04a43.521,43.521,0,0,1-10.16-9.28,69.288,69.288,0,0,1-8.08,15.92c-6.24,9.36-13.36,15.36-23.52,19.6a76.479,76.479,0,0,1-23.84,5.84Zm94.72,2a98.992,98.992,0,0,1-.48-11.12V58.08a27.445,27.445,0,0,0,3.04,1.44,175.683,175.683,0,0,1,26.8,14.56l6.56-11.52a192.789,192.789,0,0,0-36.4-16.8V33.6a70.479,70.479,0,0,1,.48-10.72H220.72a69.841,69.841,0,0,1,.48,10.72V80.96a82.674,82.674,0,0,1-.48,11.28Z" transform="translate(960 4839)" fill="#392600"/>
    </clipPath>
    <linearGradient id="linear-gradient" x1="0.283" x2="0.919" y2="1.044" gradientUnits="objectBoundingBox">
      <stop offset="0" stop-color="#aa7929"/>
      <stop offset="0.442" stop-color="#9b6b28"/>
      <stop offset="0.68" stop-color="#bc893f"/>
      <stop offset="0.877" stop-color="#91621f"/>
      <stop offset="1" stop-color="#b48238"/>
    </linearGradient>
  </defs>
  <g id="ご登録後の_限定プレゼント" data-name="ご登録後の 限定プレゼント" transform="translate(-676.058 -4742.338)">
    <path id="ご登録後の_限定プレゼント-2" data-name="ご登録後の 限定プレゼント" d="M-135.84-45.04a51.692,51.692,0,0,1,6.96,9.92l6.4-3.76a46.444,46.444,0,0,0-7.12-9.68Zm-9.12,4.96a43.953,43.953,0,0,1,7.12,10.24l6.56-3.84a40.119,40.119,0,0,0-7.12-10.08ZM-180.88-50a13.867,13.867,0,0,1,2.8.24,150.256,150.256,0,0,0,16.56.96,71.155,71.155,0,0,0,9.12-.48c-2.32,1.36-7.76,4.72-10.56,6.56l8.16,6.08c7.68-5.68,17.04-11.52,21.84-13.68l-.4-10.56c-4.32.96-11.28,1.44-20.96,1.44-11.68,0-20.96-.72-25.84-2Zm6.4,16.96c-7.6,6.08-10.88,11.68-10.88,18.24s3.52,11.2,10.72,13.92c4.48,1.76,11.44,2.64,21.04,2.64A126.049,126.049,0,0,0-135.52.48a68.638,68.638,0,0,1,7.2-.72l-.88-13.12c-5.36,2.08-16.16,3.52-26,3.52-12.48,0-18-2.08-18-6.72,0-3.12,2.32-6.48,7.2-10.4ZM-48.8-58A39.823,39.823,0,0,1-56-49.28c-2-1.44-2.48-1.76-4-3.04a75.558,75.558,0,0,0,7.76-8.8l-8-4.96a38.73,38.73,0,0,1-6.08,7.84c-3.04-3.52-3.84-4.72-4.8-8.08a42.256,42.256,0,0,1-6.72.32H-92.96a39.43,39.43,0,0,1-6.96-.4v9.04c-1.2-1.04-1.92-1.6-4.08-3.28l-7.36,6.08a63.321,63.321,0,0,1,10.48,9.36,63.96,63.96,0,0,1-13.44,6.48,33.7,33.7,0,0,1,4.72,9.28c3.76-1.68,5.04-2.32,7.52-3.68a43.264,43.264,0,0,1,.24,4.72v10.64c0,2.56-.08,3.76-.24,5.92,1.2-.08,2.96-.16,5.52-.16h9.92l-7.84,2.4a32.719,32.719,0,0,1,3.2,5.52h-13.2a50.122,50.122,0,0,1-7.84-.4V5.68a61.658,61.658,0,0,1,8.56-.4h55.6a58.9,58.9,0,0,1,8.56.4V-4.48a50.122,50.122,0,0,1-7.84.4H-60.32A14.465,14.465,0,0,0-59.2-6.16c.4-.72.48-.88,1.76-3.36L-65.76-12h10.4c4.32.08,4.32.08,5.44.16a54.889,54.889,0,0,1-.24-5.92V-28.48a40.86,40.86,0,0,1,.24-4.96,71.355,71.355,0,0,0,7.68,3.68,36.411,36.411,0,0,1,4.48-9.76,65.553,65.553,0,0,1-10.8-4.88,74.634,74.634,0,0,0,6.32-6.88c.96-1.2.96-1.2,1.52-1.84Zm-37.68.56a35.563,35.563,0,0,1-6.4,6.56c-2.16-2.16-4-3.84-6.8-6.32a37.423,37.423,0,0,1,4.4-.24Zm-3.36,20.48a35.99,35.99,0,0,1,4.48-.24H-66.4a36.561,36.561,0,0,1,4.96.24v-4a50.929,50.929,0,0,0,9.68,6.48,10.957,10.957,0,0,0,1.12.64A48.488,48.488,0,0,1-56-33.6H-95.76c-2.24,0-3.12,0-5.12-.16A83.661,83.661,0,0,0-89.84-41.2Zm4.96-8.4a66.925,66.925,0,0,0,9.04-10.16A62.791,62.791,0,0,0-66.8-45.36Zm3.92,41.28A42.382,42.382,0,0,0-84.8-12h17.28a43.886,43.886,0,0,1-3.52,7.92ZM-91.92-25.36h31.6v5.04h-31.6ZM-20.4-40.4V-36h-3.52a53.381,53.381,0,0,1-8-.48v9.68A50.774,50.774,0,0,1-24-27.28h3.6V-5.76A88.64,88.64,0,0,1-32.48-4.48l1.36,10.32c2.56-.64,2.56-.64,7.04-1.44A156.5,156.5,0,0,0-3.68-.48l-.08-8.88c-3.2.96-4,1.12-7.52,1.92V-27.28h3.12a37.845,37.845,0,0,1,5.84.32v-6a56.011,56.011,0,0,1,7.12-.32h9.36v13.6C7.52-14.56,2.08-11.2-3.44-8.88L.48.24c2.16-1.36,2.96-1.92,4.4-2.96A28.219,28.219,0,0,1,7.12,6.64c3.2.16,5.2.24,6.88.24,7.12,0,9.52-1.92,9.44-7.92V-8.8c-.16-3.52-.4-6.32-.56-8.32,4,9.92,6.96,14.24,14.48,20.8a45.418,45.418,0,0,1,5.52-9.6A37.117,37.117,0,0,1,31.52-16.48,78.124,78.124,0,0,0,41.6-26.88L34.48-32.4a31.814,31.814,0,0,1-7.28,8.48,42.866,42.866,0,0,1-3.04-9.36h9.52a77.268,77.268,0,0,1,7.76.4v-9.44a49.848,49.848,0,0,1-7.6.4c.24-4.88.4-8.32.48-10.24.56-11.68.56-11.68.8-13.28a56.415,56.415,0,0,1-7.28.32H8.24a56.267,56.267,0,0,1-8.08-.4v9.28a59.876,59.876,0,0,1,7.52-.32H24.8c-.08,1.12-.08,1.76-.08,2.48,0,.32-.08.32-.08.64H9.2a41.711,41.711,0,0,1-7.44-.4v8.72a58.443,58.443,0,0,1,7.44-.32H24.24l-.16,3.52H4.8a66.492,66.492,0,0,1-7.68-.4v6.08a46.339,46.339,0,0,1-5.2.24h-3.2v-4.4H-9.2a24.761,24.761,0,0,1,4.56.24V-45.6l.24.24A39.679,39.679,0,0,1,1.36-54c-5.92-3.92-9.12-7.36-11.68-12.72H-20.56a34.832,34.832,0,0,1-13.6,16.4,29.054,29.054,0,0,1,4,9.36,34.313,34.313,0,0,0,3.52-2.88v3.68a43.168,43.168,0,0,1,4.48-.24ZM14.16-4.16c0,1.68-.56,2-3.28,2A32.435,32.435,0,0,1,5.12-2.8a97.883,97.883,0,0,0,9.04-7.12Zm-36-44.48a45.563,45.563,0,0,0,6.8-9.52,42.836,42.836,0,0,0,7.12,9.52H-21.84Zm.08,38.96a80.713,80.713,0,0,0-3.52-15.2l-6.88,2.24A80.967,80.967,0,0,1-28.88-7.36Zm17.04-.72A64.411,64.411,0,0,0-.96-22.88L-7.6-25.04a53.875,53.875,0,0,1-3.04,12.56ZM-1.6-27.6C1.6-24.08,2.96-22.08,6-16.16l7.2-5.28a53.342,53.342,0,0,0-7.76-10.8ZM86.8-68.56c-.96,2.48-4.4,7.44-7.76,11.04-1.12-.8-1.92-1.36-3.76-2.72L68.56-52.8a92.76,92.76,0,0,1,14.4,11.6L80-38.56c-4.56.08-4.56.08-5.68.16H71.84c-.8,0-2-.08-2.48-.08-1.36-.16-1.36-.16-1.84-.24l1.04,10.24c2.32-.4,2.64-.4,8.96-.8,1.68-.16,1.84-.16,4.16-.32a30.119,30.119,0,0,1-9.92,9.28,36.3,36.3,0,0,1-7.12,3.76V-34.88c2.96-4.08,4.56-6.32,4.88-6.8a27.712,27.712,0,0,1,2.16-3.2l-8.4-5.68a38.158,38.158,0,0,1-4.72,7.6A60.969,60.969,0,0,1,45.52-30.4,38.643,38.643,0,0,1,49.6-20a32.879,32.879,0,0,0,5.04-4.8c-.08,4.4-.08,4.4-.08,5.04V-2a58.559,58.559,0,0,1-.48,8.64H64.96a92.517,92.517,0,0,1-.32-9.36V-15.68A32.855,32.855,0,0,1,70-8.08,59.516,59.516,0,0,0,78.64-14a45.464,45.464,0,0,0,5.92,5.84A62.508,62.508,0,0,1,64.72-2.08a35.1,35.1,0,0,1,4.48,9.2A67.645,67.645,0,0,0,93.12-1.84a70.47,70.47,0,0,0,24.72,8.48,46.183,46.183,0,0,1,4.4-10.4A64.794,64.794,0,0,1,102-8.4a85.707,85.707,0,0,0,11.52-12.24,16.933,16.933,0,0,1,1.2-1.68l-5.6-5.12a46.528,46.528,0,0,1-6.32.32H90.56c.96-1.44,1.2-1.84,2.08-3.28,5.04-.4,10.88-.96,17.6-1.68,1.04,2.08,1.44,2.88,2.96,5.84l8.88-5.04A167.232,167.232,0,0,0,110.4-49.36l-8.16,4.56c1.92,2.72,2.4,3.36,3.52,5.04-4.96.4-9.04.64-12.32.8,4.08-3.84,11.36-11.36,13.76-14.32a47.873,47.873,0,0,1,3.52-4.16l-9.28-5.52c-1.6,3.12-5.2,7.76-11.52,14.64-1.44-1.44-2.08-2-3.92-3.6,2.8-3.04,6.24-7.12,8.48-10.08,1.28-1.76,1.28-1.76,2-2.72ZM99.68-19.12a55.691,55.691,0,0,1-6.72,5.92,26.829,26.829,0,0,1-6.4-5.92ZM62.72-68.8a22.959,22.959,0,0,1-3.12,4.56c-3.6,4.32-7.28,7.2-13.2,10.4a30.656,30.656,0,0,1,5.2,9.04A66.754,66.754,0,0,0,66.64-57.36c2.48-2.96,2.48-2.96,4.4-5.36ZM166.48-45.432a14,14,0,0,1,6.7,2.3,17.5,17.5,0,0,1,7.7,15.048c0,7.632-3.744,14.328-9.936,17.712-3.384,1.8-7.848,2.952-14.256,3.456a29.521,29.521,0,0,1,5.328,10.224A51.4,51.4,0,0,0,173.464.36c11.52-4.536,18.072-14.688,18.072-27.792,0-16.848-11.52-27.648-29.592-27.648-10.3,0-19.152,3.6-25.344,10.368a31.062,31.062,0,0,0-8.064,21.384c0,12.384,6.336,21.1,15.264,21.1,6.192,0,10.944-4.248,14.976-13.392C162.52-23.976,165.04-33.552,166.48-45.432Zm-10.512.144a92.7,92.7,0,0,1-5.76,23.184c-2.3,5.832-4.536,8.64-6.624,8.64-2.808,0-5.112-4.392-5.112-9.792a23.606,23.606,0,0,1,8.856-18.432A16.18,16.18,0,0,1,155.968-45.288ZM-209.84,59.76c.96,0,1.04,0,2.96.08a86.483,86.483,0,0,1-.32-8.72V31.76a69.657,69.657,0,0,1,.32-8.88,57.823,57.823,0,0,1-7.36.32h-24a41.576,41.576,0,0,1-7.6-.4c.24,3.2.32,5.12.32,8.64v51.6a63.159,63.159,0,0,1-8.88,1.12l1.84,10.72c.8-.24,1.68-.48,3.28-.88l10.64-2.32c7.76-1.84,9.84-2.4,15.76-4.08l-.08-7.28a48.027,48.027,0,0,0,3.84,4.8,52.176,52.176,0,0,0,12.16,9.92,32.479,32.479,0,0,1,5.6-9.84,39.115,39.115,0,0,1-13.04-10c2.88-2.08,5.84-4.4,7.44-5.84,3.28-2.8,3.84-3.36,4.32-3.6Zm-2.88-.08h1.84a51.763,51.763,0,0,1-8.48,7.6,31.435,31.435,0,0,1-2.4-7.6Zm-22.88,0h4.56c1.6,8,3.36,12.72,6.8,18.56a112.083,112.083,0,0,1-11.36,2.8Zm0-27.36h18.56v5.04H-235.6Zm0,13.52h18.56V51.2H-235.6ZM-274.4,84.8a85.055,85.055,0,0,1-.48,10H-264c-.32-3.28-.4-6.4-.4-10V32h7.52c-2.48,8.08-3.6,11.12-6.72,17.12,2.8,3.28,3.84,4.96,4.88,7.52a20.226,20.226,0,0,1,1.68,8c0,2.4-.88,3.12-3.68,3.12a22.924,22.924,0,0,1-2.88-.24c1.36,2.88,1.76,5.04,1.92,9.92,3.92-.08,6.96-.48,8.88-1.28,3.6-1.36,5.6-4.8,5.6-9.36,0-6.72-1.52-10.88-6.48-18.24a143.5,143.5,0,0,0,7.04-16.88c.4-1.12.72-2.08,1.04-2.8l-4.96-6.56c-1.04.32-2.56.4-6,.4h-12.08a38.683,38.683,0,0,1-6.08-.32c.32,4.56.32,5.36.32,8.08Zm110.24-4.4c-5.04-2.24-7.84-4.72-10.96-9.92,1.2-3.92,2.24-7.6,3.2-11.6l-10.48-1.92a53.446,53.446,0,0,1-5.44,17.28,48.514,48.514,0,0,1-9.76,12.88,33.471,33.471,0,0,1,8.16,7.92,58.27,58.27,0,0,0,10.32-14.88A28.5,28.5,0,0,0-166.4,90c5.44,2.16,13.52,3.2,24.8,3.2,4.32,0,9.12-.08,16-.24a40.974,40.974,0,0,1,2.48-10.72c-8.8.72-13.92.96-19.2.96a103.09,103.09,0,0,1-11.84-.56V70.8h14.72a55.593,55.593,0,0,1,8.08.4v-10a52.33,52.33,0,0,1-8.08.4h-14.72V52.8h11.92a57.9,57.9,0,0,1,8.32.4v-6h8.96a44.877,44.877,0,0,1-.4-6.64V33.68a48.987,48.987,0,0,1,.32-6.08c-3.12.24-6,.32-9.2.32h-21.04v-2.4a24.764,24.764,0,0,1,.4-5.04H-166.4a25.577,25.577,0,0,1,.4,5.12v2.32h-20.24c-3.2,0-6.08-.08-9.2-.32a50.711,50.711,0,0,1,.32,6.08v6.8a39.759,39.759,0,0,1-.4,6.72h9.12v6a58.585,58.585,0,0,1,8.32-.4h13.92Zm28.88-37.04c-2,.16-4,.24-6.96.24h-35.84c-3.04,0-5.04-.08-6.96-.24v-6h49.76ZM-96.64,29.2c-6.64,0-9.12-.08-12.56-.56V40.88a93.8,93.8,0,0,1,12.4-.48h35.04C-65.44,54.96-73.28,65.92-85.6,73.76a64.97,64.97,0,0,1-17.2,7.92c4.56,4.56,5.84,6.32,8.48,11.44,13.76-6.16,22.8-12.4,30.16-21.04,7.36-8.56,12.48-18.96,15.84-32.4l.32-1.12h.32a8.843,8.843,0,0,0,8.8-8.88,8.86,8.86,0,0,0-8.88-8.88,8.83,8.83,0,0,0-8.8,8.24A29.119,29.119,0,0,1-60,29.2Zm48.88-3.44a3.926,3.926,0,0,1,3.92,3.92,3.926,3.926,0,0,1-3.92,3.92,3.926,3.926,0,0,1-3.92-3.92A3.926,3.926,0,0,1-47.76,25.76Zm25.52-1.52a65.666,65.666,0,0,1,.48,9.04,5.281,5.281,0,0,1-.08,1.12l-.32,42.8c0,4.32-.16,5.52-.8,7.36l6.08,7.2a18.659,18.659,0,0,1,4.8-1.36C11.2,86.16,24.96,77.52,36.32,60a39.569,39.569,0,0,1-9.12-9.76A48.568,48.568,0,0,1,11.68,68.32,53.178,53.178,0,0,1-9.68,77.36l.48-43.04a68.518,68.518,0,0,1,.56-9.92Zm122.4,1.44a42.427,42.427,0,0,1,6.56,10.48l6.88-3.2a39.988,39.988,0,0,0-6.64-10.24Zm9.44-4.16a49.92,49.92,0,0,1,6.56,10.64l6.64-3.36a44.349,44.349,0,0,0-6.72-10.24ZM65.68,42.16l-6.64.72c-3.76.4-6.48.64-8.08.64-.48,0-1.36,0-2.4-.08l1.2,11.76a68.648,68.648,0,0,1,10.48-1.68l5.44-.72V70.72c0,6.96.08,8.24.8,10.8a11.165,11.165,0,0,0,7.2,7.44c2.96.96,8.08,1.44,14.72,1.44,4.4,0,10.08-.32,16.64-.96,7.12-.72,7.12-.72,8.88-.72L113.44,76a61.888,61.888,0,0,1-10.72,2.32,127.591,127.591,0,0,1-14.16.96,43.488,43.488,0,0,1-7.04-.48c-2.24-.4-3.28-1.36-3.6-3.28-.24-1.28-.24-1.28-.32-6.48V51.52l24.96-3.2a29.353,29.353,0,0,1-6.24,8.08,42.676,42.676,0,0,1-9.12,6.72,33.431,33.431,0,0,1,9.6,7.84c5.76-4.48,8.4-6.96,11.28-10.48a68.357,68.357,0,0,0,8.56-13.84,14.2,14.2,0,0,1,2.4-4.08l-6.88-6.32c-1.68.8-2.32.96-5.92,1.36L77.68,40.88V33.12a51.006,51.006,0,0,1,.56-9.04H65.12a48.881,48.881,0,0,1,.56,9.28Zm69.52-5.2a84.521,84.521,0,0,1,21.04,16.56l8.08-10.48c-6.4-5.92-10.96-9.28-21.28-15.52Zm3.84,53.28a29.187,29.187,0,0,1,4-1.12c1.52-.32,1.52-.32,3.52-.72a101.556,101.556,0,0,0,23.28-8.32c13.92-7.36,23.36-17.92,31.28-35.04a43.521,43.521,0,0,1-10.16-9.28,69.288,69.288,0,0,1-8.08,15.92c-6.24,9.36-13.36,15.36-23.52,19.6a76.479,76.479,0,0,1-23.84,5.84Zm94.72,2a98.992,98.992,0,0,1-.48-11.12V58.08a27.445,27.445,0,0,0,3.04,1.44,175.683,175.683,0,0,1,26.8,14.56l6.56-11.52a192.789,192.789,0,0,0-36.4-16.8V33.6a70.479,70.479,0,0,1,.48-10.72H220.72a69.841,69.841,0,0,1,.48,10.72V80.96a82.674,82.674,0,0,1-.48,11.28Z" transform="translate(960 4823)" fill="#392600" stroke="#fff" stroke-linecap="round" stroke-width="16"/>
    <g id="マスクグループ_11" data-name="マスクグループ 11" transform="translate(0 -16)" clip-path="url(#clip-path)">
      <rect id="長方形_56" data-name="長方形 56" width="561" height="168" transform="translate(679 4769)" fill="url(#linear-gradient)"/>
    </g>
  </g>
</svg>
